<mxfile host="Electron" modified="2024-07-30T17:13:42.124Z" agent="Mozilla/5.0 (Windows NT 10.0; Win64; x64) AppleWebKit/537.36 (KHTML, like Gecko) draw.io/24.5.3 Chrome/124.0.6367.207 Electron/30.0.6 Safari/537.36" etag="8NDlToeF851AKePoBZ5I" version="24.5.3" type="device" pages="2">
  <diagram name="aspera-vpc" id="lFepWA_hzQPEA9taEIX6">
    <mxGraphModel dx="2074" dy="1230" grid="1" gridSize="10" guides="1" tooltips="1" connect="1" arrows="1" fold="1" page="1" pageScale="1" pageWidth="850" pageHeight="1100" math="0" shadow="0">
      <root>
        <mxCell id="4AtUD67M2sYMyPP23X5i-0" />
        <mxCell id="4AtUD67M2sYMyPP23X5i-1" parent="4AtUD67M2sYMyPP23X5i-0" />
        <mxCell id="4AtUD67M2sYMyPP23X5i-2" value="" style="rounded=0;whiteSpace=wrap;html=1;fontFamily=IBM Plex Sans;fontSource=fonts%2FIBMPlexSans-Regular.woff;fontSize=14;spacingBottom=-28;spacingTop=0;labelPosition=-100;verticalLabelPosition=top;align=center;verticalAlign=bottom;spacingLeft=9;spacing=0;expand=0;recursiveResize=0;spacingRight=0;container=1;collapsible=0;strokeColor=#1192E8;fillColor=none;" parent="4AtUD67M2sYMyPP23X5i-1" vertex="1">
          <mxGeometry x="330" y="120" width="480" height="440" as="geometry">
            <mxRectangle width="670" as="alternateBounds" />
          </mxGeometry>
        </mxCell>
        <mxCell id="4AtUD67M2sYMyPP23X5i-3" value="" style="rounded=0;whiteSpace=wrap;html=1;fontFamily=IBM Plex Sans;fontSource=fonts%2FIBMPlexSans-Regular.woff;fontSize=14;spacingBottom=-28;spacingTop=0;labelPosition=-100;verticalLabelPosition=top;align=center;verticalAlign=bottom;spacingLeft=9;spacing=0;expand=0;recursiveResize=0;spacingRight=0;container=1;collapsible=0;strokeColor=#1192E8;fillColor=none;" parent="4AtUD67M2sYMyPP23X5i-2" vertex="1">
          <mxGeometry x="20" y="211" width="440" height="210" as="geometry">
            <mxRectangle width="670" as="alternateBounds" />
          </mxGeometry>
        </mxCell>
        <mxCell id="Avl5V7ywEmpvwm01zEsU-4" value="" style="rounded=0;whiteSpace=wrap;html=1;fontFamily=IBM Plex Sans;fontSource=fonts%2FIBMPlexSans-Regular.woff;fontSize=14;spacingBottom=-28;spacingTop=0;labelPosition=-100;verticalLabelPosition=top;align=center;verticalAlign=bottom;spacingLeft=9;spacing=0;expand=0;recursiveResize=0;spacingRight=0;container=1;collapsible=0;strokeColor=#1192E8;fillColor=none;" parent="4AtUD67M2sYMyPP23X5i-3" vertex="1">
          <mxGeometry x="19.25" y="50" width="400.75" height="140" as="geometry">
            <mxRectangle width="670" as="alternateBounds" />
          </mxGeometry>
        </mxCell>
        <mxCell id="Avl5V7ywEmpvwm01zEsU-5" value="" style="rounded=0;whiteSpace=wrap;html=1;strokeColor=none;fillColor=#1192E8;" parent="Avl5V7ywEmpvwm01zEsU-4" vertex="1">
          <mxGeometry width="7" height="37" as="geometry" />
        </mxCell>
        <mxCell id="Avl5V7ywEmpvwm01zEsU-6" value="VPC Subnet" style="text;html=1;strokeColor=none;fillColor=none;align=left;verticalAlign=middle;whiteSpace=wrap;rounded=0;fontFamily=IBM Plex Sans;fontSource=fonts%2FIBMPlexSans-Regular.woff;fontSize=14;" parent="Avl5V7ywEmpvwm01zEsU-4" vertex="1">
          <mxGeometry x="51" y="8" width="163" height="20" as="geometry" />
        </mxCell>
        <mxCell id="Avl5V7ywEmpvwm01zEsU-7" value="" style="shape=image;aspect=fixed;image=data:image/svg+xml,PD94bWwgdmVyc2lvbj0iMS4wIiBlbmNvZGluZz0iVVRGLTgiPz4KPHN2ZyB3aWR0aD0iMjlweCIgaGVpZ2h0PSIyOHB4IiB2aWV3Qm94PSIwIDAgMjkgMjgiIHZlcnNpb249IjEuMSIgeG1sbnM9Imh0dHA6Ly93d3cudzMub3JnLzIwMDAvc3ZnIiB4bWxuczp4bGluaz0iaHR0cDovL3d3dy53My5vcmcvMTk5OS94bGluayI+CiAgICA8IS0tIEdlbmVyYXRvcjogU2tldGNoIDUzICg3MjUyMCkgLSBodHRwczovL3NrZXRjaGFwcC5jb20gLS0+CiAgICA8dGl0bGU+VkxBTiBCbGFjazwvdGl0bGU+CiAgICA8ZGVzYz5DcmVhdGVkIHdpdGggU2tldGNoLjwvZGVzYz4KICAgIDxnIGlkPSJQYWdlLTEiIHN0cm9rZT0ibm9uZSIgc3Ryb2tlLXdpZHRoPSIxIiBmaWxsPSJub25lIiBmaWxsLXJ1bGU9ImV2ZW5vZGQiPgogICAgICAgIDxwYXRoIGQ9Ik0xOC43NTQ2Mjk2LDI2LjAwMDEyNSBMMjQuNzU0NjI5NiwyNi4wMDAxMjUgTDI0Ljc1NDYyOTYsMjEuMDAwMTI1IEwxOC43NTQ2Mjk2LDIxLjAwMDEyNSBMMTguNzU0NjI5NiwyNi4wMDAxMjUgWiBNNC43NTQ2Mjk2MywyNi4wMDAxMjUgTDEwLjc1NDYyOTYsMjYuMDAwMTI1IEwxMC43NTQ2Mjk2LDIxLjAwMDEyNSBMNC43NTQ2Mjk2MywyMS4wMDAxMjUgTDQuNzU0NjI5NjMsMjYuMDAwMTI1IFogTTExLjc1NDYyOTYsNy4wMDAxMjUgTDE3Ljc1NDYyOTYsNy4wMDAxMjUgTDE3Ljc1NDYyOTYsMi4wMDAxMjUgTDExLjc1NDYyOTYsMi4wMDAxMjUgTDExLjc1NDYyOTYsNy4wMDAxMjUgWiBNMjguNzU0NjI5NiwxNS4wMDAxMjUgTDI4Ljc1NDYyOTYsMTMuMDAwMTI1IEwxNS43NTQ2Mjk2LDEzLjAwMDEyNSBMMTUuNzU0NjI5Niw5LjAwMDEyNSBMMTcuNzU0NjI5Niw5LjAwMDEyNSBDMTguODU5NjI5Niw5LjAwMDEyNSAxOS43NTQ2Mjk2LDguMTA0MTI1IDE5Ljc1NDYyOTYsNy4wMDAxMjUgTDE5Ljc1NDYyOTYsMi4wMDAxMjUgQzE5Ljc1NDYyOTYsMC44OTYxMjUgMTguODU5NjI5NiwwLjAwMDEyNSAxNy43NTQ2Mjk2LDAuMDAwMTI1IEwxMS43NTQ2Mjk2LDAuMDAwMTI1IEMxMC42NTA2Mjk2LDAuMDAwMTI1IDkuNzU0NjI5NjMsMC44OTYxMjUgOS43NTQ2Mjk2MywyLjAwMDEyNSBMOS43NTQ2Mjk2Myw3LjAwMDEyNSBDOS43NTQ2Mjk2Myw4LjEwNDEyNSAxMC42NTA2Mjk2LDkuMDAwMTI1IDExLjc1NDYyOTYsOS4wMDAxMjUgTDEzLjc1NDYyOTYsOS4wMDAxMjUgTDEzLjc1NDYyOTYsMTMuMDAwMTI1IEwwLjc1NDYyOTYzLDEzLjAwMDEyNSBMMC43NTQ2Mjk2MywxNS4wMDAxMjUgTDYuNzU0NjI5NjMsMTUuMDAwMTI1IEw2Ljc1NDYyOTYzLDE5LjAwMDEyNSBMNC43NTQ2Mjk2MywxOS4wMDAxMjUgQzMuNjUwNjI5NjMsMTkuMDAwMTI1IDIuNzU0NjI5NjMsMTkuODk2MTI1IDIuNzU0NjI5NjMsMjEuMDAwMTI1IEwyLjc1NDYyOTYzLDI2LjAwMDEyNSBDMi43NTQ2Mjk2MywyNy4xMDUxMjUgMy42NTA2Mjk2MywyOC4wMDAxMjUgNC43NTQ2Mjk2MywyOC4wMDAxMjUgTDEwLjc1NDYyOTYsMjguMDAwMTI1IEMxMS44NTk2Mjk2LDI4LjAwMDEyNSAxMi43NTQ2Mjk2LDI3LjEwNTEyNSAxMi43NTQ2Mjk2LDI2LjAwMDEyNSBMMTIuNzU0NjI5NiwyMS4wMDAxMjUgQzEyLjc1NDYyOTYsMTkuODk2MTI1IDExLjg1OTYyOTYsMTkuMDAwMTI1IDEwLjc1NDYyOTYsMTkuMDAwMTI1IEw4Ljc1NDYyOTYzLDE5LjAwMDEyNSBMOC43NTQ2Mjk2MywxNS4wMDAxMjUgTDIwLjc1NDYyOTYsMTUuMDAwMTI1IEwyMC43NTQ2Mjk2LDE5LjAwMDEyNSBMMTguNzU0NjI5NiwxOS4wMDAxMjUgQzE3LjY1MDYyOTYsMTkuMDAwMTI1IDE2Ljc1NDYyOTYsMTkuODk2MTI1IDE2Ljc1NDYyOTYsMjEuMDAwMTI1IEwxNi43NTQ2Mjk2LDI2LjAwMDEyNSBDMTYuNzU0NjI5NiwyNy4xMDUxMjUgMTcuNjUwNjI5NiwyOC4wMDAxMjUgMTguNzU0NjI5NiwyOC4wMDAxMjUgTDI0Ljc1NDYyOTYsMjguMDAwMTI1IEMyNS44NTk2Mjk2LDI4LjAwMDEyNSAyNi43NTQ2Mjk2LDI3LjEwNTEyNSAyNi43NTQ2Mjk2LDI2LjAwMDEyNSBMMjYuNzU0NjI5NiwyMS4wMDAxMjUgQzI2Ljc1NDYyOTYsMTkuODk2MTI1IDI1Ljg1OTYyOTYsMTkuMDAwMTI1IDI0Ljc1NDYyOTYsMTkuMDAwMTI1IEwyMi43NTQ2Mjk2LDE5LjAwMDEyNSBMMjIuNzU0NjI5NiwxNS4wMDAxMjUgTDI4Ljc1NDYyOTYsMTUuMDAwMTI1IFoiIGlkPSJWTEFOLUJsYWNrIiBmaWxsPSIjMDAwMDAwIj48L3BhdGg+CiAgICA8L2c+Cjwvc3ZnPg==;" parent="Avl5V7ywEmpvwm01zEsU-4" vertex="1">
          <mxGeometry x="19" y="6" width="20" height="19.31" as="geometry" />
        </mxCell>
        <mxCell id="4AtUD67M2sYMyPP23X5i-25" value="BlockÂ &#xa;Storage" style="shape=image;aspect=fixed;image=data:image/svg+xml,PHN2ZyBpZD0iTGF5ZXJfMSIgZGF0YS1uYW1lPSJMYXllciAxIiB4bWxucz0iaHR0cDovL3d3dy53My5vcmcvMjAwMC9zdmciIHZpZXdCb3g9IjAgMCA0OSA0OSI+PGRlZnM+PHN0eWxlPi5jbHMtMXtmaWxsOiMwZjYyZmU7fS5jbHMtMntmaWxsOiNmZmY7fS5jbHMtM3tmaWxsOm5vbmU7fTwvc3R5bGU+PC9kZWZzPjxyZWN0IGNsYXNzPSJjbHMtMSIgeD0iMC41IiB5PSIwLjUiIHdpZHRoPSI0OCIgaGVpZ2h0PSI0OCIgcng9IjgiLz48cGF0aCBjbGFzcz0iY2xzLTIiIGQ9Ik0zMiwyN0gzMC43NXYxLjI1SDMyVjMySDE3VjI4LjI1aDEuMjVWMjdIMTdhMS4yNSwxLjI1LDAsMCwwLTEuMjUsMS4yNVYzMkExLjI1LDEuMjUsMCwwLDAsMTcsMzMuMjVIMzJBMS4yNSwxLjI1LDAsMCwwLDMzLjI1LDMyVjI4LjI1QTEuMjUsMS4yNSwwLDAsMCwzMiwyN1oiLz48Y2lyY2xlIGNsYXNzPSJjbHMtMiIgY3g9IjE4Ljg4IiBjeT0iMzAuMTMiIHI9IjAuNjMiLz48cGF0aCBjbGFzcz0iY2xzLTIiIGQ9Ik0yMy44OCwyN0gxOS41VjIyLjYyaDQuMzhabS0zLjEzLTEuMjVoMS44N1YyMy44OEgyMC43NVoiLz48cGF0aCBjbGFzcz0iY2xzLTIiIGQ9Ik0yOS41LDI3SDI1LjEyVjIyLjYySDI5LjVabS0zLjEyLTEuMjVoMS44N1YyMy44OEgyNi4zOFoiLz48cGF0aCBjbGFzcz0iY2xzLTIiIGQ9Ik0yMy44OCwyMS4zOEgxOS41VjE3aDQuMzhabS0zLjEzLTEuMjZoMS44N1YxOC4yNUgyMC43NVoiLz48cGF0aCBjbGFzcz0iY2xzLTIiIGQ9Ik0yOS41LDIxLjM4SDI1LjEyVjE3SDI5LjVabS0zLjEyLTEuMjZoMS44N1YxOC4yNUgyNi4zOFoiLz48cmVjdCBjbGFzcz0iY2xzLTMiIHg9IjE0LjUiIHk9IjE0LjUiIHdpZHRoPSIyMCIgaGVpZ2h0PSIyMCIvPjwvc3ZnPg==;fontFamily=Helvetica;fontSize=12;labelPosition=center;verticalLabelPosition=bottom;align=center;verticalAlign=top;spacingTop=0;labelBackgroundColor=default;" parent="Avl5V7ywEmpvwm01zEsU-4" vertex="1">
          <mxGeometry x="25.75" y="45" width="50" height="50" as="geometry" />
        </mxCell>
        <mxCell id="4AtUD67M2sYMyPP23X5i-19" value="Workload VSI" style="pointerEvents=1;shadow=0;dashed=0;strokeColor=none;fillColor=#666666;labelPosition=center;verticalLabelPosition=bottom;verticalAlign=top;align=center;outlineConnect=0;shape=image;labelBackgroundColor=default;imageAspect=0;image=data:image/svg+xml,PHN2ZyB4bWxucz0iaHR0cDovL3d3dy53My5vcmcvMjAwMC9zdmciIHZpZXdCb3g9IjAgMCA0OSA0OSIgaWQ9IkxheWVyXzEiPjxkZWZzPjxzdHlsZT4uY2xzLTF7ZmlsbDpub25lO30uY2xzLTJ7ZmlsbDojZmZmO30uY2xzLTN7ZmlsbDojMTk4MDM4O308L3N0eWxlPjwvZGVmcz48cmVjdCByeT0iOCIgcng9IjgiIGhlaWdodD0iNDgiIHdpZHRoPSI0OCIgeT0iLjUiIHg9Ii41IiBjbGFzcz0iY2xzLTMiLz48cGF0aCBkPSJNMjcsMjIuNmgtNWMtLjcsMC0xLjIsLjYtMS4yLDEuM3Y4LjFjMCwuNywuNiwxLjIsMS4yLDEuMmg1Yy43LDAsMS4yLS42LDEuMi0xLjJ2LTguMWMwLS43LS42LTEuMi0xLjItMS4zWm0wLDEuM3YxLjloLTV2LTEuOWg1Wm0wLDMuMXYxLjloLTV2LTEuOWg1Wm0tNSw1di0xLjloNXYxLjloLTVaIiBjbGFzcz0iY2xzLTIiLz48cGF0aCBkPSJNMzAuNywyMC44czAsMCwwLDBjLS43LTMuNC00LTUuNi03LjMtNC45LTIuNSwuNS00LjQsMi40LTQuOSw0LjksMCwwLDAsMCwwLDAtMi41LC41LTQuMiwzLTMuNyw1LjUsLjQsMi4yLDIuMywzLjgsNC42LDMuOGguM3YtMS4yaC0uM2MtMS45LDAtMy40LTEuNi0zLjQtMy41LDAtLjIsMC0uMywwLS41LC4zLTEuNSwxLjUtMi43LDMtMi45aC42YzAtLjEsMC0uMSwwLS4ydi0uNmMuNS0yLjIsMi4yLTMuOSw0LjQtNC4yLC42LDAsMS4yLDAsMS44LDAsMiwuNSwzLjUsMi4xLDMuOSw0LjF2LjZxLjEsMCwuMiwwaC43Yy43LC4yLDEuNCwuNiwxLjksMS4xLDEuMywxLjMsMS4zLDMuNSwwLDQuOS0uNiwuNi0xLjUsMS0yLjQsMWgtLjN2MS4yaC4zYzIuNiwwLDQuNy0yLjEsNC42LTQuNywwLTIuMi0xLjYtNC4xLTMuOC00LjZoMFoiIGNsYXNzPSJjbHMtMiIvPjxyZWN0IGhlaWdodD0iMjAiIHdpZHRoPSIyMCIgeT0iMTQuNSIgeD0iMTQuNSIgY2xhc3M9ImNscy0xIiBpZD0iX1RyYW5zcGFyZW50X1JlY3RhbmdsZV8iLz48L3N2Zz4=;" parent="Avl5V7ywEmpvwm01zEsU-4" vertex="1">
          <mxGeometry x="120.75" y="44.5" width="50" height="50" as="geometry" />
        </mxCell>
        <mxCell id="Avl5V7ywEmpvwm01zEsU-17" style="edgeStyle=orthogonalEdgeStyle;rounded=0;orthogonalLoop=1;jettySize=auto;html=1;exitX=0;exitY=0.5;exitDx=0;exitDy=0;entryX=1;entryY=0.5;entryDx=0;entryDy=0;dashed=1;endArrow=none;endFill=0;" parent="Avl5V7ywEmpvwm01zEsU-4" source="4AtUD67M2sYMyPP23X5i-19" target="4AtUD67M2sYMyPP23X5i-25" edge="1">
          <mxGeometry relative="1" as="geometry" />
        </mxCell>
        <mxCell id="Avl5V7ywEmpvwm01zEsU-19" value="" style="whiteSpace=wrap;html=1;aspect=fixed;fillColor=none;strokeColor=#00FF22;dashed=1;strokeWidth=5;" parent="Avl5V7ywEmpvwm01zEsU-4" vertex="1">
          <mxGeometry x="280.75" y="37" width="96.25" height="96.25" as="geometry" />
        </mxCell>
        <mxCell id="Avl5V7ywEmpvwm01zEsU-0" value="Aspera Server" style="shape=image;verticalLabelPosition=bottom;labelBackgroundColor=default;verticalAlign=top;aspect=fixed;imageAspect=0;image=data:image/svg+xml,PHN2ZyB4bWxucz0iaHR0cDovL3d3dy53My5vcmcvMjAwMC9zdmciIHZpZXdCb3g9IjAgMCA0OSA0OSIgaWQ9IkxheWVyXzEiPjxkZWZzPjxzdHlsZT4uY2xzLTF7ZmlsbDpub25lO30uY2xzLTJ7ZmlsbDojZmZmO30uY2xzLTN7ZmlsbDojMTk4MDM4O308L3N0eWxlPjwvZGVmcz48cmVjdCByeT0iOCIgcng9IjgiIGhlaWdodD0iNDgiIHdpZHRoPSI0OCIgeT0iLjUiIHg9Ii41IiBjbGFzcz0iY2xzLTMiLz48cGF0aCBkPSJNMjcsMjIuNmgtNWMtLjcsMC0xLjIsLjYtMS4yLDEuM3Y4LjFjMCwuNywuNiwxLjIsMS4yLDEuMmg1Yy43LDAsMS4yLS42LDEuMi0xLjJ2LTguMWMwLS43LS42LTEuMi0xLjItMS4zWm0wLDEuM3YxLjloLTV2LTEuOWg1Wm0wLDMuMXYxLjloLTV2LTEuOWg1Wm0tNSw1di0xLjloNXYxLjloLTVaIiBjbGFzcz0iY2xzLTIiLz48cGF0aCBkPSJNMzAuNywyMC44czAsMCwwLDBjLS43LTMuNC00LTUuNi03LjMtNC45LTIuNSwuNS00LjQsMi40LTQuOSw0LjksMCwwLDAsMCwwLDAtMi41LC41LTQuMiwzLTMuNyw1LjUsLjQsMi4yLDIuMywzLjgsNC42LDMuOGguM3YtMS4yaC0uM2MtMS45LDAtMy40LTEuNi0zLjQtMy41LDAtLjIsMC0uMywwLS41LC4zLTEuNSwxLjUtMi43LDMtMi45aC42YzAtLjEsMC0uMSwwLS4ydi0uNmMuNS0yLjIsMi4yLTMuOSw0LjQtNC4yLC42LDAsMS4yLDAsMS44LDAsMiwuNSwzLjUsMi4xLDMuOSw0LjF2LjZxLjEsMCwuMiwwaC43Yy43LC4yLDEuNCwuNiwxLjksMS4xLDEuMywxLjMsMS4zLDMuNSwwLDQuOS0uNiwuNi0xLjUsMS0yLjQsMWgtLjN2MS4yaC4zYzIuNiwwLDQuNy0yLjEsNC42LTQuNywwLTIuMi0xLjYtNC4xLTMuOC00LjZoMFoiIGNsYXNzPSJjbHMtMiIvPjxyZWN0IGhlaWdodD0iMjAiIHdpZHRoPSIyMCIgeT0iMTQuNSIgeD0iMTQuNSIgY2xhc3M9ImNscy0xIiBpZD0iX1RyYW5zcGFyZW50X1JlY3RhbmdsZV8iLz48L3N2Zz4=;" parent="Avl5V7ywEmpvwm01zEsU-4" vertex="1">
          <mxGeometry x="305" y="44.5" width="50" height="50" as="geometry" />
        </mxCell>
        <mxCell id="Avl5V7ywEmpvwm01zEsU-8" value="" style="edgeStyle=orthogonalEdgeStyle;rounded=0;orthogonalLoop=1;jettySize=auto;html=1;strokeWidth=2;" parent="Avl5V7ywEmpvwm01zEsU-4" source="Avl5V7ywEmpvwm01zEsU-0" target="4AtUD67M2sYMyPP23X5i-19" edge="1">
          <mxGeometry relative="1" as="geometry" />
        </mxCell>
        <mxCell id="Avl5V7ywEmpvwm01zEsU-18" value="NFS Mount" style="edgeLabel;html=1;align=center;verticalAlign=middle;resizable=0;points=[];" parent="Avl5V7ywEmpvwm01zEsU-8" vertex="1" connectable="0">
          <mxGeometry x="-0.2393" y="2" relative="1" as="geometry">
            <mxPoint x="-26" y="-13" as="offset" />
          </mxGeometry>
        </mxCell>
        <mxCell id="4AtUD67M2sYMyPP23X5i-4" value="" style="rounded=0;whiteSpace=wrap;html=1;strokeColor=none;fillColor=#1192E8;" parent="4AtUD67M2sYMyPP23X5i-3" vertex="1">
          <mxGeometry width="7" height="37" as="geometry" />
        </mxCell>
        <mxCell id="4AtUD67M2sYMyPP23X5i-5" value="IBM VPC" style="text;html=1;strokeColor=none;fillColor=none;align=left;verticalAlign=middle;whiteSpace=wrap;rounded=0;fontFamily=IBM Plex Sans;fontSource=fonts%2FIBMPlexSans-Regular.woff;fontSize=14;" parent="4AtUD67M2sYMyPP23X5i-3" vertex="1">
          <mxGeometry x="51" y="8" width="163" height="20" as="geometry" />
        </mxCell>
        <mxCell id="4AtUD67M2sYMyPP23X5i-6" value="" style="shape=image;aspect=fixed;image=data:image/svg+xml,PD94bWwgdmVyc2lvbj0iMS4wIiBlbmNvZGluZz0iVVRGLTgiPz4KPHN2ZyB3aWR0aD0iMjlweCIgaGVpZ2h0PSIyOHB4IiB2aWV3Qm94PSIwIDAgMjkgMjgiIHZlcnNpb249IjEuMSIgeG1sbnM9Imh0dHA6Ly93d3cudzMub3JnLzIwMDAvc3ZnIiB4bWxuczp4bGluaz0iaHR0cDovL3d3dy53My5vcmcvMTk5OS94bGluayI+CiAgICA8IS0tIEdlbmVyYXRvcjogU2tldGNoIDUzICg3MjUyMCkgLSBodHRwczovL3NrZXRjaGFwcC5jb20gLS0+CiAgICA8dGl0bGU+SUJNIFZQQyBCbGFjazwvdGl0bGU+CiAgICA8ZGVzYz5DcmVhdGVkIHdpdGggU2tldGNoLjwvZGVzYz4KICAgIDxnIGlkPSJQYWdlLTEiIHN0cm9rZT0ibm9uZSIgc3Ryb2tlLXdpZHRoPSIxIiBmaWxsPSJub25lIiBmaWxsLXJ1bGU9ImV2ZW5vZGQiPgogICAgICAgIDxnIGlkPSJJQk0tVlBDLUJsYWNrIiB0cmFuc2Zvcm09InRyYW5zbGF0ZSgwLjc1MDAwMCwgLTEuMDAwMDAwKSIgZmlsbD0iIzAwMDAwMCI+CiAgICAgICAgICAgIDxwYXRoIGQ9Ik0wLjAwMDksMS4wMDAyIEwwLjAwMDksOS4wMDAyIEw2LjU4NjksOS4wMDAyIEwyMC4wMDA5LDIyLjQxNDIgTDIwLjAwMDksMjkuMDAwMiBMMjguMDAwOSwyOS4wMDAyIEwyOC4wMDA5LDIxLjAwMDIgTDIxLjQxNTksMjEuMDAwMiBMOC4wMDA5LDcuNTg1MiBMOC4wMDA5LDEuMDAwMiBMMC4wMDA5LDEuMDAwMiBaIE0yLjAwMDksNy4wMDAyIEw2LjAwMDksNy4wMDAyIEw2LjAwMDksMy4wMDAyIEwyLjAwMDksMy4wMDAyIEwyLjAwMDksNy4wMDAyIFogTTIyLjAwMDksMjcuMDAxMiBMMjYuMDAxOSwyNy4wMDEyIEwyNi4wMDE5LDIzLjAwMDIgTDIyLjAwMDksMjMuMDAwMiBMMjIuMDAwOSwyNy4wMDEyIFoiIGlkPSJGaWxsLTEiPjwvcGF0aD4KICAgICAgICAgICAgPGcgaWQ9Ikdyb3VwLTgiIHRyYW5zZm9ybT0idHJhbnNsYXRlKDAuMDAwMDAwLCAwLjAwMTkwMCkiPgogICAgICAgICAgICAgICAgPGcgaWQ9Ikdyb3VwLTQiIHRyYW5zZm9ybT0idHJhbnNsYXRlKDExLjAwMDAwMCwgMC4wMDAwMDApIj4KICAgICAgICAgICAgICAgICAgICA8cGF0aCBkPSJNMTIuNjQ2Nyw2LjgxNzkgQzExLjU0MjcsNi44MTc5IDEwLjY0NjcsNS45MjI5IDEwLjY0NjcsNC44MTc5IEMxMC42NDY3LDMuNzEzOSAxMS41NDI3LDIuODE3OSAxMi42NDY3LDIuODE3OSBDMTMuNzUwNywyLjgxNzkgMTQuNjQ2NywzLjcxMzkgMTQuNjQ2Nyw0LjgxNzkgQzE0LjY0NTcsNS45MjE5IDEzLjc1MDcsNi44MTY5IDEyLjY0NjcsNi44MTc5IE0xNi43MzM3LDMuNTE4OSBDMTYuMzU2NywyLjQ5ODkgMTUuNTMxNywxLjY2NzkgMTQuNTE1NywxLjI4MDkgQzEyLjEyNzcsMC4zNzA5IDkuNzE3NywxLjc1NTkgOS4xNDI3LDMuOTk3OSBMMC4wMDA3LDMuOTk3OSBMMC4wMDA3LDUuOTk3OSBMOS4xNDI3LDUuOTk3OSBDOS41MDc3LDcuMzk3OSAxMC42MDE3LDguNDkwOSAxMi4wMDA3LDguODU1OSBMMTIuMDAwNywxNy45OTc5IEwxNC4wMDA3LDE3Ljk5NzkgTDE0LjAwMDcsOC44NTU5IEMxNi4yMjk3LDguMjgxOSAxNy42MTE3LDUuODk2OSAxNi43MzM3LDMuNTE4OSIgaWQ9IkZpbGwtMiI+PC9wYXRoPgogICAgICAgICAgICAgICAgPC9nPgogICAgICAgICAgICAgICAgPGcgaWQ9Ikdyb3VwLTciIHRyYW5zZm9ybT0idHJhbnNsYXRlKDAuMDAwMDAwLCAxMS4wMDAwMDApIj4KICAgICAgICAgICAgICAgICAgICA8cGF0aCBkPSJNMy42NDY3LDE1LjgxNzkgQzIuNTQyNywxNS44MTc5IDEuNjQ2NywxNC45MjI5IDEuNjQ2NywxMy44MTc5IEMxLjY0NjcsMTIuNzEzOSAyLjU0MjcsMTEuODE3OSAzLjY0NjcsMTEuODE3OSBDNC43NTA3LDExLjgxNzkgNS42NDY3LDEyLjcxMzkgNS42NDY3LDEzLjgxNzkgQzUuNjQ1NywxNC45MjE5IDQuNzUwNywxNS44MTY5IDMuNjQ2NywxNS44MTc5IEwzLjY0NjcsMTUuODE3OSBaIE0xNy4wMDA3LDEyLjk5NzkgTDcuODU4NywxMi45OTc5IEM3LjQ5MzcsMTEuNTk3OSA2LjQwMDcsMTAuNTA0OSA1LjAwMDcsMTAuMTM5OSBMNS4wMDA3LDAuOTk3OSBMMy4wMDA3LDAuOTk3OSBMMy4wMDA3LDEwLjEzOTkgQzAuNDg3NywxMC43ODQ5IC0wLjg1MTMsMTMuNjgzOSAwLjU5NDcsMTYuMTE5OSBDMS4xNTA3LDE3LjA1NTkgMi4xMTE3LDE3LjcyODkgMy4xODI3LDE3LjkyNjkgQzUuNDAyNywxOC4zMzc5IDcuMzUzNywxNi45Njk5IDcuODU4NywxNC45OTc5IEwxNy4wMDA3LDE0Ljk5NzkgTDE3LjAwMDcsMTIuOTk3OSBaIiBpZD0iRmlsbC01Ij48L3BhdGg+CiAgICAgICAgICAgICAgICA8L2c+CiAgICAgICAgICAgIDwvZz4KICAgICAgICA8L2c+CiAgICA8L2c+Cjwvc3ZnPg==;" parent="4AtUD67M2sYMyPP23X5i-3" vertex="1">
          <mxGeometry x="20" y="6.849999999999909" width="20" height="19.31" as="geometry" />
        </mxCell>
        <mxCell id="4AtUD67M2sYMyPP23X5i-7" value="" style="rounded=0;whiteSpace=wrap;html=1;strokeColor=none;fillColor=#1192E8;" parent="4AtUD67M2sYMyPP23X5i-2" vertex="1">
          <mxGeometry width="7" height="37" as="geometry" />
        </mxCell>
        <mxCell id="4AtUD67M2sYMyPP23X5i-8" value="IBM Cloud" style="text;html=1;strokeColor=none;fillColor=none;align=left;verticalAlign=middle;whiteSpace=wrap;rounded=0;fontFamily=IBM Plex Sans;fontSource=fonts%2FIBMPlexSans-Regular.woff;fontSize=14;" parent="4AtUD67M2sYMyPP23X5i-2" vertex="1">
          <mxGeometry x="51" y="8" width="163" height="20" as="geometry" />
        </mxCell>
        <mxCell id="4AtUD67M2sYMyPP23X5i-9" value="" style="shape=image;aspect=fixed;image=data:image/svg+xml,PD94bWwgdmVyc2lvbj0iMS4wIiBlbmNvZGluZz0iVVRGLTgiPz4KPHN2ZyB3aWR0aD0iMzNweCIgaGVpZ2h0PSIzMXB4IiB2aWV3Qm94PSIwIDAgMzMgMzEiIHZlcnNpb249IjEuMSIgeG1sbnM9Imh0dHA6Ly93d3cudzMub3JnLzIwMDAvc3ZnIiB4bWxuczp4bGluaz0iaHR0cDovL3d3dy53My5vcmcvMTk5OS94bGluayI+CiAgICA8IS0tIEdlbmVyYXRvcjogU2tldGNoIDUzICg3MjUyMCkgLSBodHRwczovL3NrZXRjaGFwcC5jb20gLS0+CiAgICA8dGl0bGU+SUJNIENsb3VkIEJsYWNrPC90aXRsZT4KICAgIDxkZXNjPkNyZWF0ZWQgd2l0aCBTa2V0Y2guPC9kZXNjPgogICAgPGcgaWQ9IlBhZ2UtMSIgc3Ryb2tlPSJub25lIiBzdHJva2Utd2lkdGg9IjEiIGZpbGw9Im5vbmUiIGZpbGwtcnVsZT0iZXZlbm9kZCI+CiAgICAgICAgPGcgaWQ9IklCTS1DbG91ZC1CbGFjayIgdHJhbnNmb3JtPSJ0cmFuc2xhdGUoMC43ODQ3MjIsIDAuNTAwMTI1KSIgZmlsbD0iIzAwMDAwMCI+CiAgICAgICAgICAgIDxwYXRoIGQ9Ik0yNy4xMDIxLDI3LjAxMDYgQzI1Ljg3MDEsMjcuODc5NiAyNC4zNjExLDI4LjI2NzYgMjIuODUzMSwyOC4yNjc2IEw3LjAwNDEsMjguMjY3NiBDNC4xMTIxLDI4LjI3NDYgMS43NjIxLDI1LjkzNDYgMS43NTUxLDIzLjA0MjYgQzEuNzQ5MSwyMC40MTA2IDMuNjk3MSwxOC4xODM2IDYuMzA1MSwxNy44Mzg2IEM2LjQxMTEsMTkuMTYxNiA2Ljc4NzEsMjAuNDQ5NiA3LjQwOTEsMjEuNjIxNiBDNy41OTUxLDIxLjk5MTYgOC4wNDYxLDIyLjE0MDYgOC40MTYxLDIxLjk1NDYgQzguNzg2MSwyMS43Njc2IDguOTM1MSwyMS4zMTc2IDguNzQ4MSwyMC45NDc2IEw4LjczMDEsMjAuOTEyNiBDNy4xMzIxLDE3LjkzNTYgNy40MjkxLDE0LjIxNzYgOS42NzIxLDExLjY4OTYgQzEzLjQ4NjEsNy4zOTI2IDE5Ljc4NzEsOC4wNTI2IDIyLjc1NzEsMTIuMjgxNiBDMjAuMzM0MSwxMi4zNDc2IDE4LjA0NzEsMTMuNDE1NiAxNi40NDExLDE1LjIzMDYgQzE2LjE2MTEsMTUuNTM1NiAxNi4xODExLDE2LjAxMDYgMTYuNDg1MSwxNi4yOTA2IEMxNi43ODkxLDE2LjU3MTYgMTcuMjY0MSwxNi41NTI2IDE3LjU0NTEsMTYuMjQ3NiBMMTcuNTY2MSwxNi4yMjI2IEMxOS41OTUxLDEzLjkyMzYgMjIuODg0MSwxMy4wNTI2IDI1LjcwMzEsMTQuMjYzNiBDMzEuMTY1MSwxNi42MDk2IDMxLjgxMDEsMjMuNjkyNiAyNy4xMDIxLDI3LjAxMDYgTTI0LjU4NTEsMTIuOTE3NiBDMjIuMDU0MSw4LjE3NTYgMTYuMTU5MSw2LjM4MjYgMTEuNDE2MSw4LjkxMzYgQzguNDY1MSwxMC40ODg2IDYuNTI5MSwxMy40Njg2IDYuMjkwMSwxNi44MDY2IEMyLjU4NDEsMTcuMjA0NiAtMC4wOTc5LDIwLjUzMjYgMC4zMDExLDI0LjIzOTYgQzAuNjY5MSwyNy42NjU2IDMuNTU5MSwzMC4yNjM2IDcuMDA0MSwzMC4yNjc2IEwyMy4wMDQxLDMwLjI2NzYgQzI3LjgzNTEsMzAuMjcwNiAzMS43NTMxLDI2LjM1NzYgMzEuNzU2MSwyMS41MjY2IEMzMS43NTkxLDE3LjMwMTYgMjguNzQxMSwxMy42Nzg2IDI0LjU4NTEsMTIuOTE3NiIgaWQ9IkZpbGwtMSI+PC9wYXRoPgogICAgICAgICAgICA8ZyBpZD0iR3JvdXAtNSIgdHJhbnNmb3JtPSJ0cmFuc2xhdGUoMjcuMDAwMDAwLCA4LjI2NzcwMCkiPgogICAgICAgICAgICAgICAgPHBhdGggZD0iTTQuOTAyOCwwLjkxOTcgQzQuNjkzOCwwLjU1NjcgNC4yMjk4LDAuNDMyNyAzLjg2NjgsMC42NDE3IEMzLjg2NjgsMC42NDE3IDMuODY2OCwwLjY0MTcgMy44NjY4LDAuNjQyNyBMMC44NDY4LDIuMzg1NyBDMC40Nzg4LDIuNTg2NyAwLjM0MzgsMy4wNDc3IDAuNTQ0OCwzLjQxNTcgQzAuNzQ1OCwzLjc4MzcgMS4yMDY4LDMuOTE4NyAxLjU3NDgsMy43MTc3IEMxLjU4NDgsMy43MTE3IDEuNTk0OCwzLjcwNTcgMS42MDQ4LDMuNjk5NyBMNC42MjQ4LDEuOTU2NyBDNC45ODc4LDEuNzQ2NyA1LjExMTgsMS4yODI3IDQuOTAyOCwwLjkxOTciIGlkPSJGaWxsLTMiPjwvcGF0aD4KICAgICAgICAgICAgPC9nPgogICAgICAgICAgICA8cGF0aCBkPSJNMjIuNjgxMiw2LjgwMjYgQzIzLjA0MzIsNy4wMTI2IDIzLjUwNzIsNi44ODg2IDIzLjcxNzIsNi41MjU2IEwyMy43MTcyLDYuNTI1NiBMMjUuNDYxMiwzLjUwNTYgQzI1LjY2ODIsMy4xNDA2IDI1LjU0MDIsMi42Nzc2IDI1LjE3NjIsMi40NzA2IEMyNC44MTUyLDIuMjY2NiAyNC4zNTcyLDIuMzg4NiAyNC4xNDcyLDIuNzQ2NiBMMjIuNDAzMiw1Ljc2NjYgQzIyLjE5NDIsNi4xMjk2IDIyLjMxODIsNi41OTM2IDIyLjY4MTIsNi44MDI2IiBpZD0iRmlsbC02Ij48L3BhdGg+CiAgICAgICAgICAgIDxwYXRoIGQ9Ik0xNi4wMDQ0LDUuMDE0MSBDMTYuNDIzNCw1LjAxNDEgMTYuNzYzNCw0LjY3NDEgMTcuMzM1NCw0LjI1NTEgTDE3LjMzNTQsMC43NjcxIEMxNi43Njg0LDAuMzQ4MSAxNi40MzI0LDAuMDA1MSAxNi4wMTM0LDAuMDAwMSBDMTUuNTk0NCwtMC4wMDQ5IDE1LjI1MTQsMC4zMzExIDE1LjMzNTQsMC43NTAxIEwxNS4zMzU0LDAuNzY3MSBMMTUuMzM1NCw0LjI1NTEgQzE1LjI0NjQsNC42NzQxIDE1LjU4NTQsNS4wMTQxIDE2LjAwNDQsNS4wMTQxIiBpZD0iRmlsbC04Ij48L3BhdGg+CiAgICAgICAgICAgIDxwYXRoIGQ9Ik04LjI5Miw2LjUyNDggQzguNTA0LDYuODg1OCA4Ljk2OSw3LjAwNjggOS4zMzEsNi43OTQ4IEM5LjY4OCw2LjU4NDggOS44MTEsNi4xMjY4IDkuNjA2LDUuNzY1OCBMNy44NjIsMi43NDU4IEM3LjY1NSwyLjM4MTggNy4xOTIsMi4yNTM4IDYuODI4LDIuNDYwOCBDNi40NjMsMi42Njc4IDYuMzM1LDMuMTMwOCA2LjU0MiwzLjQ5NDggQzYuNTQ0LDMuNDk4OCA2LjU0NiwzLjUwMTggNi41NDgsMy41MDQ4IEw4LjI5Miw2LjUyNDggWiIgaWQ9IkZpbGwtMTAiPjwvcGF0aD4KICAgICAgICAgICAgPGcgaWQ9Ikdyb3VwLTE0IiB0cmFuc2Zvcm09InRyYW5zbGF0ZSgwLjAwMDAwMCwgOC4yNjc3MDApIj4KICAgICAgICAgICAgICAgIDxwYXRoIGQ9Ik00LjE2MzEsMi4zODYgTDEuMTQzMSwwLjY0MiBDMC43ODIxLDAuNDMgMC4zMTcxLDAuNTUxIDAuMTA0MSwwLjkxMiBDLTAuMTA3OSwxLjI3MyAwLjAxMzEsMS43MzkgMC4zNzQxLDEuOTUgQzAuMzc4MSwxLjk1MiAwLjM4MTEsMS45NTQgMC4zODQxLDEuOTU2IEwzLjQwNTEsMy43IEMzLjc2NjEsMy45MTIgNC4yMzExLDMuNzkxIDQuNDQzMSwzLjQzIEM0LjY1NTEsMy4wNjkgNC41MzUxLDIuNjA0IDQuMTczMSwyLjM5MiBDNC4xNzAxLDIuMzkgNC4xNjYxLDIuMzg4IDQuMTYzMSwyLjM4NiBaIiBpZD0iRmlsbC0xMiI+PC9wYXRoPgogICAgICAgICAgICA8L2c+CiAgICAgICAgPC9nPgogICAgPC9nPgo8L3N2Zz4=;" parent="4AtUD67M2sYMyPP23X5i-2" vertex="1">
          <mxGeometry x="20" y="7" width="21" height="19.73" as="geometry" />
        </mxCell>
        <mxCell id="4AtUD67M2sYMyPP23X5i-10" value="" style="rounded=0;whiteSpace=wrap;html=1;fontFamily=IBM Plex Sans;fontSource=fonts%2FIBMPlexSans-Regular.woff;fontSize=14;spacingBottom=-28;spacingTop=0;labelPosition=-100;verticalLabelPosition=top;align=center;verticalAlign=bottom;spacingLeft=9;spacing=0;expand=0;recursiveResize=0;spacingRight=0;container=1;collapsible=0;strokeColor=#1192E8;fillColor=none;" parent="4AtUD67M2sYMyPP23X5i-2" vertex="1">
          <mxGeometry x="20.5" y="41" width="159" height="150" as="geometry">
            <mxRectangle width="670" as="alternateBounds" />
          </mxGeometry>
        </mxCell>
        <mxCell id="4AtUD67M2sYMyPP23X5i-11" value="" style="rounded=0;whiteSpace=wrap;html=1;strokeColor=none;fillColor=#1192E8;" parent="4AtUD67M2sYMyPP23X5i-10" vertex="1">
          <mxGeometry width="7" height="37" as="geometry" />
        </mxCell>
        <mxCell id="4AtUD67M2sYMyPP23X5i-12" value="IBM VPC" style="text;html=1;strokeColor=none;fillColor=none;align=left;verticalAlign=middle;whiteSpace=wrap;rounded=0;fontFamily=IBM Plex Sans;fontSource=fonts%2FIBMPlexSans-Regular.woff;fontSize=14;" parent="4AtUD67M2sYMyPP23X5i-10" vertex="1">
          <mxGeometry x="51" y="8" width="163" height="20" as="geometry" />
        </mxCell>
        <mxCell id="4AtUD67M2sYMyPP23X5i-13" value="" style="shape=image;aspect=fixed;image=data:image/svg+xml,PD94bWwgdmVyc2lvbj0iMS4wIiBlbmNvZGluZz0iVVRGLTgiPz4KPHN2ZyB3aWR0aD0iMjlweCIgaGVpZ2h0PSIyOHB4IiB2aWV3Qm94PSIwIDAgMjkgMjgiIHZlcnNpb249IjEuMSIgeG1sbnM9Imh0dHA6Ly93d3cudzMub3JnLzIwMDAvc3ZnIiB4bWxuczp4bGluaz0iaHR0cDovL3d3dy53My5vcmcvMTk5OS94bGluayI+CiAgICA8IS0tIEdlbmVyYXRvcjogU2tldGNoIDUzICg3MjUyMCkgLSBodHRwczovL3NrZXRjaGFwcC5jb20gLS0+CiAgICA8dGl0bGU+SUJNIFZQQyBCbGFjazwvdGl0bGU+CiAgICA8ZGVzYz5DcmVhdGVkIHdpdGggU2tldGNoLjwvZGVzYz4KICAgIDxnIGlkPSJQYWdlLTEiIHN0cm9rZT0ibm9uZSIgc3Ryb2tlLXdpZHRoPSIxIiBmaWxsPSJub25lIiBmaWxsLXJ1bGU9ImV2ZW5vZGQiPgogICAgICAgIDxnIGlkPSJJQk0tVlBDLUJsYWNrIiB0cmFuc2Zvcm09InRyYW5zbGF0ZSgwLjc1MDAwMCwgLTEuMDAwMDAwKSIgZmlsbD0iIzAwMDAwMCI+CiAgICAgICAgICAgIDxwYXRoIGQ9Ik0wLjAwMDksMS4wMDAyIEwwLjAwMDksOS4wMDAyIEw2LjU4NjksOS4wMDAyIEwyMC4wMDA5LDIyLjQxNDIgTDIwLjAwMDksMjkuMDAwMiBMMjguMDAwOSwyOS4wMDAyIEwyOC4wMDA5LDIxLjAwMDIgTDIxLjQxNTksMjEuMDAwMiBMOC4wMDA5LDcuNTg1MiBMOC4wMDA5LDEuMDAwMiBMMC4wMDA5LDEuMDAwMiBaIE0yLjAwMDksNy4wMDAyIEw2LjAwMDksNy4wMDAyIEw2LjAwMDksMy4wMDAyIEwyLjAwMDksMy4wMDAyIEwyLjAwMDksNy4wMDAyIFogTTIyLjAwMDksMjcuMDAxMiBMMjYuMDAxOSwyNy4wMDEyIEwyNi4wMDE5LDIzLjAwMDIgTDIyLjAwMDksMjMuMDAwMiBMMjIuMDAwOSwyNy4wMDEyIFoiIGlkPSJGaWxsLTEiPjwvcGF0aD4KICAgICAgICAgICAgPGcgaWQ9Ikdyb3VwLTgiIHRyYW5zZm9ybT0idHJhbnNsYXRlKDAuMDAwMDAwLCAwLjAwMTkwMCkiPgogICAgICAgICAgICAgICAgPGcgaWQ9Ikdyb3VwLTQiIHRyYW5zZm9ybT0idHJhbnNsYXRlKDExLjAwMDAwMCwgMC4wMDAwMDApIj4KICAgICAgICAgICAgICAgICAgICA8cGF0aCBkPSJNMTIuNjQ2Nyw2LjgxNzkgQzExLjU0MjcsNi44MTc5IDEwLjY0NjcsNS45MjI5IDEwLjY0NjcsNC44MTc5IEMxMC42NDY3LDMuNzEzOSAxMS41NDI3LDIuODE3OSAxMi42NDY3LDIuODE3OSBDMTMuNzUwNywyLjgxNzkgMTQuNjQ2NywzLjcxMzkgMTQuNjQ2Nyw0LjgxNzkgQzE0LjY0NTcsNS45MjE5IDEzLjc1MDcsNi44MTY5IDEyLjY0NjcsNi44MTc5IE0xNi43MzM3LDMuNTE4OSBDMTYuMzU2NywyLjQ5ODkgMTUuNTMxNywxLjY2NzkgMTQuNTE1NywxLjI4MDkgQzEyLjEyNzcsMC4zNzA5IDkuNzE3NywxLjc1NTkgOS4xNDI3LDMuOTk3OSBMMC4wMDA3LDMuOTk3OSBMMC4wMDA3LDUuOTk3OSBMOS4xNDI3LDUuOTk3OSBDOS41MDc3LDcuMzk3OSAxMC42MDE3LDguNDkwOSAxMi4wMDA3LDguODU1OSBMMTIuMDAwNywxNy45OTc5IEwxNC4wMDA3LDE3Ljk5NzkgTDE0LjAwMDcsOC44NTU5IEMxNi4yMjk3LDguMjgxOSAxNy42MTE3LDUuODk2OSAxNi43MzM3LDMuNTE4OSIgaWQ9IkZpbGwtMiI+PC9wYXRoPgogICAgICAgICAgICAgICAgPC9nPgogICAgICAgICAgICAgICAgPGcgaWQ9Ikdyb3VwLTciIHRyYW5zZm9ybT0idHJhbnNsYXRlKDAuMDAwMDAwLCAxMS4wMDAwMDApIj4KICAgICAgICAgICAgICAgICAgICA8cGF0aCBkPSJNMy42NDY3LDE1LjgxNzkgQzIuNTQyNywxNS44MTc5IDEuNjQ2NywxNC45MjI5IDEuNjQ2NywxMy44MTc5IEMxLjY0NjcsMTIuNzEzOSAyLjU0MjcsMTEuODE3OSAzLjY0NjcsMTEuODE3OSBDNC43NTA3LDExLjgxNzkgNS42NDY3LDEyLjcxMzkgNS42NDY3LDEzLjgxNzkgQzUuNjQ1NywxNC45MjE5IDQuNzUwNywxNS44MTY5IDMuNjQ2NywxNS44MTc5IEwzLjY0NjcsMTUuODE3OSBaIE0xNy4wMDA3LDEyLjk5NzkgTDcuODU4NywxMi45OTc5IEM3LjQ5MzcsMTEuNTk3OSA2LjQwMDcsMTAuNTA0OSA1LjAwMDcsMTAuMTM5OSBMNS4wMDA3LDAuOTk3OSBMMy4wMDA3LDAuOTk3OSBMMy4wMDA3LDEwLjEzOTkgQzAuNDg3NywxMC43ODQ5IC0wLjg1MTMsMTMuNjgzOSAwLjU5NDcsMTYuMTE5OSBDMS4xNTA3LDE3LjA1NTkgMi4xMTE3LDE3LjcyODkgMy4xODI3LDE3LjkyNjkgQzUuNDAyNywxOC4zMzc5IDcuMzUzNywxNi45Njk5IDcuODU4NywxNC45OTc5IEwxNy4wMDA3LDE0Ljk5NzkgTDE3LjAwMDcsMTIuOTk3OSBaIiBpZD0iRmlsbC01Ij48L3BhdGg+CiAgICAgICAgICAgICAgICA8L2c+CiAgICAgICAgICAgIDwvZz4KICAgICAgICA8L2c+CiAgICA8L2c+Cjwvc3ZnPg==;" parent="4AtUD67M2sYMyPP23X5i-10" vertex="1">
          <mxGeometry x="20" y="6.849999999999909" width="20" height="19.31" as="geometry" />
        </mxCell>
        <mxCell id="-4FbSUQ90jrqNjfZWfip-0" value="ObjectÂ &#xa;Storage" style="shape=image;aspect=fixed;image=data:image/svg+xml,PHN2ZyBpZD0iTGF5ZXJfMSIgZGF0YS1uYW1lPSJMYXllciAxIiB4bWxucz0iaHR0cDovL3d3dy53My5vcmcvMjAwMC9zdmciIHZpZXdCb3g9IjAgMCA0OSA0OSI+PGRlZnM+PHN0eWxlPi5jbHMtMXtmaWxsOiMwZjYyZmU7fS5jbHMtMntmaWxsOiNmZmY7fS5jbHMtM3tmaWxsOm5vbmU7fTwvc3R5bGU+PC9kZWZzPjxyZWN0IGNsYXNzPSJjbHMtMSIgeD0iMC41IiB5PSIwLjUiIHdpZHRoPSI0OCIgaGVpZ2h0PSI0OCIgcng9IjgiLz48cGF0aCBjbGFzcz0iY2xzLTIiIGQ9Ik0zMiwyN0gzMC43NXYxLjI1SDMyVjMySDE3VjI4LjI1aDYuMjVWMjdIMTdhMS4yNSwxLjI1LDAsMCwwLTEuMjUsMS4yNVYzMkExLjI1LDEuMjUsMCwwLDAsMTcsMzMuMjVIMzJBMS4yNSwxLjI1LDAsMCwwLDMzLjI1LDMyVjI4LjI1QTEuMjUsMS4yNSwwLDAsMCwzMiwyN1oiLz48Y2lyY2xlIGNsYXNzPSJjbHMtMiIgY3g9IjE4Ljg4IiBjeT0iMzAuMTMiIHI9IjAuNjMiLz48cmVjdCBjbGFzcz0iY2xzLTMiIHg9IjE0LjUiIHk9IjE0LjUiIHdpZHRoPSIyMCIgaGVpZ2h0PSIyMCIvPjxwYXRoIGNsYXNzPSJjbHMtMiIgZD0iTTI3LjYyLDIzLjI1YTEuODgsMS44OCwwLDAsMC0xLjI3LjUxbC0yLjUtMS41YTIuMywyLjMsMCwwLDAsMC0uMjYsMi4zLDIuMywwLDAsMCwwLS4yNmwyLjUtMS41YTEuODcsMS44NywwLDEsMC0uNi0xLjM2LDEuMDcsMS4wNywwLDAsMCwwLC4yNWwtMi41MSwxLjVBMS44NiwxLjg2LDAsMCwwLDIyLDIwLjEyYTEuODgsMS44OCwwLDAsMCwwLDMuNzYsMS44NiwxLjg2LDAsMCwwLDEuMjctLjUxbDIuNTEsMS41YTEuMDcsMS4wNywwLDAsMCwwLC4yNSwxLjg4LDEuODgsMCwxLDAsMS44Ny0xLjg3Wm0wLTVhLjYzLjYzLDAsMSwxLS42Mi42M0EuNjMuNjMsMCwwLDEsMjcuNjIsMTguMjVaTTIyLDIyLjYyYS42Mi42MiwwLDEsMSwuNjItLjYyQS42Mi42MiwwLDAsMSwyMiwyMi42MlptNS42MiwzLjEzYS42My42MywwLDEsMSwuNjMtLjYzQS42My42MywwLDAsMSwyNy42MiwyNS43NVoiLz48L3N2Zz4=;fontFamily=IBM Plex Sans;fontSource=fonts%2FIBMPlexSans-Regular.woff;fontSize=14;labelPosition=center;verticalLabelPosition=top;align=center;verticalAlign=bottom;spacingTop=-7;" parent="4AtUD67M2sYMyPP23X5i-2" vertex="1">
          <mxGeometry x="345.25" y="100" width="48" height="48" as="geometry" />
        </mxCell>
        <mxCell id="GR-Tek1gfr92fxXJqfzg-1" value="(Provisioning)" style="edgeStyle=orthogonalEdgeStyle;rounded=0;orthogonalLoop=1;jettySize=auto;html=1;exitX=0.5;exitY=0;exitDx=0;exitDy=0;entryX=0.5;entryY=1;entryDx=0;entryDy=0;fillColor=#e51400;strokeColor=#FF0000;dashed=1;strokeWidth=1;" edge="1" parent="4AtUD67M2sYMyPP23X5i-2" source="Avl5V7ywEmpvwm01zEsU-0" target="-4FbSUQ90jrqNjfZWfip-0">
          <mxGeometry relative="1" as="geometry" />
        </mxCell>
        <mxCell id="4AtUD67M2sYMyPP23X5i-31" value="" style="rounded=0;whiteSpace=wrap;html=1;fontFamily=IBM Plex Sans;fontSource=fonts%2FIBMPlexSans-Regular.woff;fontSize=14;spacingBottom=-28;spacingTop=0;labelPosition=-100;verticalLabelPosition=top;align=center;verticalAlign=bottom;spacingLeft=9;spacing=0;expand=0;recursiveResize=0;spacingRight=0;container=1;collapsible=0;strokeColor=#878d96;fillColor=none;" parent="4AtUD67M2sYMyPP23X5i-1" vertex="1">
          <mxGeometry x="20" y="120" width="240" height="240" as="geometry">
            <mxRectangle width="670" as="alternateBounds" />
          </mxGeometry>
        </mxCell>
        <mxCell id="4AtUD67M2sYMyPP23X5i-32" value="" style="rounded=0;whiteSpace=wrap;html=1;strokeColor=none;fillColor=#878d96;" parent="4AtUD67M2sYMyPP23X5i-31" vertex="1">
          <mxGeometry width="7" height="37" as="geometry" />
        </mxCell>
        <mxCell id="4AtUD67M2sYMyPP23X5i-33" value="Enterprise" style="text;html=1;strokeColor=none;fillColor=none;align=left;verticalAlign=middle;whiteSpace=wrap;rounded=0;fontFamily=IBM Plex Sans;fontSource=fonts%2FIBMPlexSans-Regular.woff;fontSize=14;" parent="4AtUD67M2sYMyPP23X5i-31" vertex="1">
          <mxGeometry x="51" y="8" width="168" height="20" as="geometry" />
        </mxCell>
        <mxCell id="4AtUD67M2sYMyPP23X5i-34" style="edgeStyle=orthogonalEdgeStyle;rounded=0;orthogonalLoop=1;jettySize=auto;html=1;exitX=0;exitY=0.5;exitDx=0;exitDy=0;entryX=1.009;entryY=0.22;entryDx=0;entryDy=0;entryPerimeter=0;fontFamily=IBM Plex Sans;fontSource=fonts%2FIBMPlexSans-Regular.woff;fontSize=14;startArrow=oval;startFill=1;strokeColor=#198038;" parent="4AtUD67M2sYMyPP23X5i-31" edge="1">
          <mxGeometry relative="1" as="geometry" />
        </mxCell>
        <mxCell id="4AtUD67M2sYMyPP23X5i-35" value="" style="shape=image;aspect=fixed;image=data:image/svg+xml,PD94bWwgdmVyc2lvbj0iMS4wIiBlbmNvZGluZz0iVVRGLTgiPz4KPHN2ZyB3aWR0aD0iMzFweCIgaGVpZ2h0PSIyOHB4IiB2aWV3Qm94PSIwIDAgMzEgMjgiIHZlcnNpb249IjEuMSIgeG1sbnM9Imh0dHA6Ly93d3cudzMub3JnLzIwMDAvc3ZnIiB4bWxuczp4bGluaz0iaHR0cDovL3d3dy53My5vcmcvMTk5OS94bGluayI+CiAgICA8IS0tIEdlbmVyYXRvcjogU2tldGNoIDUzICg3MjUyMCkgLSBodHRwczovL3NrZXRjaGFwcC5jb20gLS0+CiAgICA8dGl0bGU+RW50ZXJwcmlzZTwvdGl0bGU+CiAgICA8ZGVzYz5DcmVhdGVkIHdpdGggU2tldGNoLjwvZGVzYz4KICAgIDxkZWZzPgogICAgICAgIDxwb2x5Z29uIGlkPSJwYXRoLTEiIHBvaW50cz0iMCAwLjk5OSAyNS43OTkyIDAuOTk5IDI1Ljc5OTIgMjQgMCAyNCI+PC9wb2x5Z29uPgogICAgICAgIDxwb2x5Z29uIGlkPSJwYXRoLTMiIHBvaW50cz0iMCAyOS4wMDA5IDMwLjAwMSAyOS4wMDA5IDMwLjAwMSAwLjk5OTkgMCAwLjk5OTkiPjwvcG9seWdvbj4KICAgIDwvZGVmcz4KICAgIDxnIGlkPSJQYWdlLTEiIHN0cm9rZT0ibm9uZSIgc3Ryb2tlLXdpZHRoPSIxIiBmaWxsPSJub25lIiBmaWxsLXJ1bGU9ImV2ZW5vZGQiPgogICAgICAgIDxnIGlkPSJFbnRlcnByaXNlIiB0cmFuc2Zvcm09InRyYW5zbGF0ZSgwLjg3NTAwMCwgLTEuMDAwMDAwKSI+CiAgICAgICAgICAgIDxnIGlkPSJHcm91cC0zIiB0cmFuc2Zvcm09InRyYW5zbGF0ZSgwLjAwMDAwMCwgMC4wMDA5MDApIj4KICAgICAgICAgICAgICAgIDxtYXNrIGlkPSJtYXNrLTIiIGZpbGw9IndoaXRlIj4KICAgICAgICAgICAgICAgICAgICA8dXNlIHhsaW5rOmhyZWY9IiNwYXRoLTEiPjwvdXNlPgogICAgICAgICAgICAgICAgPC9tYXNrPgogICAgICAgICAgICAgICAgPGcgaWQ9IkNsaXAtMiI+PC9nPgogICAgICAgICAgICAgICAgPHBhdGggZD0iTTI1Ljc5OTIsOSBDMjQuNjk1MiwzLjU4OSAxOS40MTEyLDAuMDk4IDE0LjAwMDIsMS4yMDMgQzEwLjAyOTIsMi4wMTQgNi45NDEyLDUuMTQzIDYuMTc5Miw5LjEyNCBDMS43MTkyLDkuOTIgLTEuMTA5OCwxNC41MDkgMC40MTcyLDE4Ljk3OCBDMS40NjgyLDIyLjA1IDQuNTA2MiwyNCA3Ljc1MzIsMjQgTDguMDAxMiwyNCBMOC4wMDEyLDIyIEw1LjY5NTIsMjIgQzUuMTUxMiwyMiA0LjYzMDIsMjEuNzcxIDQuMjQ2MiwyMS4zODQgQy0wLjI0MzgsMTYuODczIDIuNjcxMiwxMS4zMjQgNy4xMjQyLDExLjAyMSBMNy45NjAyLDEwLjk2MyBMOC4zMDcyLDcuNzU3IEM4LjM4MzIsNy4wNSA4LjcyNDIsNi4zOTcgOS4yNDQyLDUuOTEzIEMxNS4xNjUyLDAuNDA0IDIyLjMwMzIsMy40MzEgMjMuNzM3Miw5IEwyNS43OTkyLDkgWiIgaWQ9IkZpbGwtMSIgZmlsbD0iIzAwMDAwMCIgbWFzaz0idXJsKCNtYXNrLTIpIj48L3BhdGg+CiAgICAgICAgICAgIDwvZz4KICAgICAgICAgICAgPG1hc2sgaWQ9Im1hc2stNCIgZmlsbD0id2hpdGUiPgogICAgICAgICAgICAgICAgPHVzZSB4bGluazpocmVmPSIjcGF0aC0zIj48L3VzZT4KICAgICAgICAgICAgPC9tYXNrPgogICAgICAgICAgICA8ZyBpZD0iQ2xpcC01Ij48L2c+CiAgICAgICAgICAgIDxwYXRoIGQ9Ik0xOC4wMDEsMjcuMDAwOSBMMjguMDAxLDI3LjAwMDkgTDI4LjAwMSwxMy4wMDA5IEwxOC4wMDEsMTMuMDAwOSBMMTguMDAxLDI3LjAwMDkgWiBNMTIuMDAxLDI3LjAwMDkgTDE2LjAwMSwyNy4wMDA5IEwxNi4wMDEsMTkuMDAwOSBMMTIuMDAxLDE5LjAwMDkgTDEyLjAwMSwyNy4wMDA5IFogTTI4LjAwMSwxMS4wMDA5IEwxOC4wMDEsMTEuMDAwOSBDMTYuODk3LDExLjAwMTkgMTYuMDAyLDExLjg5NjkgMTYuMDAxLDEzLjAwMDkgTDE2LjAwMSwxNy4wMDA5IEwxMi4wMDEsMTcuMDAwOSBDMTAuODk3LDE3LjAwMTkgMTAuMDAyLDE3Ljg5NjkgMTAuMDAxLDE5LjAwMDkgTDEwLjAwMSwyOS4wMDA5IEwzMC4wMDEsMjkuMDAwOSBMMzAuMDAxLDEzLjAwMDkgQzMwLDExLjg5NjkgMjkuMTA1LDExLjAwMTkgMjguMDAxLDExLjAwMDkgTDI4LjAwMSwxMS4wMDA5IFoiIGlkPSJGaWxsLTQiIGZpbGw9IiMwMDAwMDAiIG1hc2s9InVybCgjbWFzay00KSI+PC9wYXRoPgogICAgICAgICAgICA8cG9seWdvbiBpZD0iRmlsbC02IiBmaWxsPSIjMDAwMDAwIiBtYXNrPSJ1cmwoI21hc2stNCkiIHBvaW50cz0iMjAuMDAxIDE5LjAwMDkgMjIuMDAxIDE5LjAwMDkgMjIuMDAxIDE1LjAwMDkgMjAuMDAxIDE1LjAwMDkiPjwvcG9seWdvbj4KICAgICAgICAgICAgPHBvbHlnb24gaWQ9IkZpbGwtNyIgZmlsbD0iIzAwMDAwMCIgbWFzaz0idXJsKCNtYXNrLTQpIiBwb2ludHM9IjI0LjAwMSAxOS4wMDA5IDI2LjAwMSAxOS4wMDA5IDI2LjAwMSAxNS4wMDA5IDI0LjAwMSAxNS4wMDA5Ij48L3BvbHlnb24+CiAgICAgICAgICAgIDxwb2x5Z29uIGlkPSJGaWxsLTgiIGZpbGw9IiMwMDAwMDAiIG1hc2s9InVybCgjbWFzay00KSIgcG9pbnRzPSIyMC4wMDEgMjUuMDAwOSAyMi4wMDEgMjUuMDAwOSAyMi4wMDEgMjEuMDAwOSAyMC4wMDEgMjEuMDAwOSI+PC9wb2x5Z29uPgogICAgICAgICAgICA8cG9seWdvbiBpZD0iRmlsbC05IiBmaWxsPSIjMDAwMDAwIiBtYXNrPSJ1cmwoI21hc2stNCkiIHBvaW50cz0iMjQuMDAxIDI1LjAwMDkgMjYuMDAxIDI1LjAwMDkgMjYuMDAxIDIxLjAwMDkgMjQuMDAxIDIxLjAwMDkiPjwvcG9seWdvbj4KICAgICAgICA8L2c+CiAgICA8L2c+Cjwvc3ZnPg==;" parent="4AtUD67M2sYMyPP23X5i-31" vertex="1">
          <mxGeometry x="20" y="6" width="23" height="20.8" as="geometry" />
        </mxCell>
        <mxCell id="4AtUD67M2sYMyPP23X5i-36" value="Enterprise" style="shape=image;aspect=fixed;image=data:image/svg+xml,PD94bWwgdmVyc2lvbj0iMS4wIiBlbmNvZGluZz0iVVRGLTgiPz4KPHN2ZyB3aWR0aD0iNDlweCIgaGVpZ2h0PSI1MHB4IiB2aWV3Qm94PSIwIDAgNDkgNTAiIHZlcnNpb249IjEuMSIgeG1sbnM9Imh0dHA6Ly93d3cudzMub3JnLzIwMDAvc3ZnIiB4bWxuczp4bGluaz0iaHR0cDovL3d3dy53My5vcmcvMTk5OS94bGluayI+CiAgICA8dGl0bGU+RW50ZXJwcmlzZSB2MiBJY29uPC90aXRsZT4KICAgIDxkZWZzPgogICAgICAgIDxwb2x5Z29uIGlkPSJwYXRoLTEiIHBvaW50cz0iMCAwIDI3LjUzOTMxMjMgMCAyNy41MzkzMTIzIDI3LjUgMCAyNy41Ij48L3BvbHlnb24+CiAgICA8L2RlZnM+CiAgICA8ZyBpZD0iUGFnZS0xIiBzdHJva2U9Im5vbmUiIHN0cm9rZS13aWR0aD0iMSIgZmlsbD0ibm9uZSIgZmlsbC1ydWxlPSJldmVub2RkIj4KICAgICAgICA8ZyBpZD0idjItNDh4NDgiIHRyYW5zZm9ybT0idHJhbnNsYXRlKC0yNDY1LjAwMDAwMCwgLTcyMC4wMDAwMDApIj4KICAgICAgICAgICAgPGcgaWQ9IkVudGVycHJpc2UtdjItSWNvbiIgdHJhbnNmb3JtPSJ0cmFuc2xhdGUoMjQ2NS40OTczMDAsIDcyMS4wMDAwMDApIj4KICAgICAgICAgICAgICAgIDxnIGlkPSJVc2Vycy1NdWx0aXBsaWNpdHkuLXYyLUljb24tQ29weSI+CiAgICAgICAgICAgICAgICAgICAgPHBhdGggZD0iTTAsMjQgQzAsMTAuNzQ1IDEwLjc0NSwwIDI0LDAgQzM3LjI1NSwwIDQ4LDEwLjc0NSA0OCwyNCBDNDgsMzcuMjU1IDM3LjI1NSw0OCAyNCw0OCBDMTAuNzQ1LDQ4IDAsMzcuMjU1IDAsMjQgWiIgaWQ9IkZpbGwtMyIgZmlsbD0iIzAwMDAwMCI+PC9wYXRoPgogICAgICAgICAgICAgICAgICAgIDxwYXRoIGQ9Ik0yNCw0OCBMMjQsNDggQzEwLjc0NSw0OCAwLDM3LjI1NSAwLDI0IEwwLDI0IEMwLDEwLjc0NSAxMC43NDUsMCAyNCwwIEwyNCwwIEMzNy4yNTUsMCA0OCwxMC43NDUgNDgsMjQgTDQ4LDI0IEM0OCwzNy4yNTUgMzcuMjU1LDQ4IDI0LDQ4IFoiIGlkPSJTdHJva2UtNSIgc3Ryb2tlPSIjMDAwMDAwIj48L3BhdGg+CiAgICAgICAgICAgICAgICA8L2c+CiAgICAgICAgICAgICAgICA8ZyBpZD0iR3JvdXAtMTYiIHRyYW5zZm9ybT0idHJhbnNsYXRlKDEwLjIzMDM0NCwgOC4xODYyMjMpIj4KICAgICAgICAgICAgICAgICAgICA8ZyBpZD0iR3JvdXAtMyI+CiAgICAgICAgICAgICAgICAgICAgICAgIDxtYXNrIGlkPSJtYXNrLTIiIGZpbGw9IndoaXRlIj4KICAgICAgICAgICAgICAgICAgICAgICAgICAgIDx1c2UgeGxpbms6aHJlZj0iI3BhdGgtMSI+PC91c2U+CiAgICAgICAgICAgICAgICAgICAgICAgIDwvbWFzaz4KICAgICAgICAgICAgICAgICAgICAgICAgPGcgaWQ9IkNsaXAtMiI+PC9nPgogICAgICAgICAgICAgICAgICAgICAgICA8cGF0aCBkPSJNMTkuNjMxMTcxNywxOC42NjI4NDg2IEMxOS42MzExNzE3LDIwLjU5MTE0NjcgMTkuNjUwNzAyOSwyMi41MTk2NDgzIDE5LjYyMjAxNjUsMjQuNDQ3NTM5NSBDMTkuNjA5ODA5NSwyNS4yNjA3Mjg3IDE5LjkxNjAwMTYsMjUuNjMyNDMxNyAyMC43NTExNjM0LDI1LjYxMjQ5MzYgQzIyLjAwMjE3NjgsMjUuNTgyNzg5OSAyMy4yNTQ4MTc4LDI1LjU4MjE3OTYgMjQuNTA1ODMxMiwyNS42MTI2OTcgQzI1LjM0MDM4MjcsMjUuNjMzMDQyIDI1LjY0MTA4MTYsMjUuMjY0Nzk3NyAyNS42MzY4MDkyLDI0LjQ1MDc5NDcgQzI1LjYxNjA1NzMsMjAuNTk0MTk4NSAyNS42MTI4MDIxLDE2LjczNzYwMjMgMjUuNjM4MjMzNCwxMi44ODEwMDYgQzI1LjY0NDEzMzQsMTEuOTgxNTU0MSAyNS4yNTU5NTEsMTEuNjg4MTc5MyAyNC40MDY1NDc3LDExLjcxNzQ3NjEgQzIzLjIyNDA5NjksMTEuNzU4MzY5NSAyMi4wMzc1NzcxLDExLjc2NTY5MzcgMjAuODU1OTQwMSwxMS43MTYwNTE5IEMxOS45MTc0MjU3LDExLjY3NjU4MjcgMTkuNTk5NjM3LDEyLjA2OTQ0NDQgMTkuNjIwMzg4OSwxMi45Nzk2NzkyIEMxOS42NjMzMTY4LDE0Ljg3MzE4NzQgMTkuNjMzNDA5NywxNi43NjgzMjMyIDE5LjYzMTE3MTcsMTguNjYyODQ4NiBNMTcuNzYzNzA1MiwxMy43MzM4NjggQzE3Ljc2MzcwNTIsMTAuMjA4MDgxMyAxNy43NDMzNjAyLDYuNjgxODg3NzMgMTcuNzc3MzM2MywzLjE1NjMwNDUgQzE3Ljc4NjI4ODEsMi4yNDI0MDc1NyAxNy40NzkwNzg3LDEuODgxODk0MzUgMTYuNTQxMTc0NywxLjg4ODQwNDc1IEMxMi4wOTk4NjM1LDEuOTE4NzE4NzkgNy42NTgzNDg4NSwxLjkyMjc4Nzc4IDMuMjE3MjQxMDksMS44ODcyNTExOCBDMi4yNDIzMDkxOSwxLjg3OTQ1Mjk2IDEuOTExNDk5NjYsMi4yMTY3NzI4OCAxLjkxNTMzMTc4LDMuMTkwNDg0MDggQzEuOTQzNjQ0NzQsMTAuMjQyNDY0NCAxLjk0MDU5Mjk5LDE3LjI5NDQ0NDYgMS45MTYzODI0NSwyNC4zNDY0MjQ5IEMxLjkxMzEyNzI2LDI1LjI1OTEwMTEgMi4yMTgwOTg2NSwyNS42MjI0NjI2IDMuMTUyNzQ3NDcsMjUuNjE2NjMzMiBDNy42MjgwMzQ4MiwyNS41ODgyODMxIDEyLjEwMzMyMjIsMjUuNTkxNTM4MyAxNi41Nzg2MDk1LDI1LjYxNDEyMTIgQzE3LjQ1MDM5MjMsMjUuNjE4NTk3MSAxNy43ODQ2NjA1LDI1LjI5NDUwMTQgMTcuNzc3MzM2MywyNC40MTMzNTk5IEMxNy43NDc4MzYxLDIwLjg1MzgwMDUgMTcuNzY1MTI5MywxNy4yOTM4MzQzIDE3Ljc2MzcwNTIsMTMuNzMzODY4IE0xMy43ODM2MTQ4LDI3LjQ4NTI0OTkgQzkuNjE1MTI5OTQsMjcuNDg1MjQ5OSA1LjQ0NjQ0MTU5LDI3LjQ2NjczNTkgMS4yNzgzNjM1OCwyNy41MDAwMzc5IEMwLjM3NDYzOTE0NywyNy41MDcwMTkgMC4wMDU5ODc5MzcwOSwyNy4yNDM1NTE0IDAuMDA5NDQ2NTg1MzEsMjYuMjg2MTE2MiBDMC4wMzkzNTM3MTk5LDE4LjQ5MTM0MDQgMC4wNzg4MjI5OTk2LDEwLjY5NjE1NzYgMC4wMDAyOTEzNDAwMiwyLjkwMjE5NTU4IEMtMC4wMjA4Njc0NDkxLDAuODA0NjI3MTU4IDEuMTEyMTQ1MDIsLTAuMDE5NzUxODE3OCAyLjg1NDg5NjgyLDAuMDA1NDc1OTY5MjYgQzcuNTMwNzg1NzcsMC4wNzMwMjEzMzQ1IDEyLjIwOTExNjEsMC4wODAzNDU1MzA3IDE2Ljg4NDU5ODIsMC4wMDA1OTMxNzE3NzEgQzE4LjU2NzMzMjIsLTAuMDI4MDkzMjYzNSAxOS43NzYyMzE1LDAuOTg0ODgzNzY1IDE5LjY2ODYwNjUsMi43ODIxNjAxNCBDMTkuNTUxNDE5NCw0Ljc0MDk3NTczIDE5LjY1OTI0NzgsNi43MTIyMDE3NyAxOS42MjA3OTU4LDguNjc3MTIwODYgQzE5LjYwMzcwNiw5LjU1NDYwMDI2IDE5Ljk0OTU3MDgsOS45MDAwNTgxOCAyMC44MjM1OTE2LDkuODc1MDMzODQgQzIyLjI0NTkwOTgsOS44MzM5MzY5NiAyMy42NzAyNjI1LDkuODQwNjUwODEgMjUuMDkzMzk0NSw5Ljg2MjQxOTk1IEMyNi42NTQwNTg3LDkuODg2MDIwMTQgMjcuNDg0OTQ4MSwxMC42ODc4MTYyIDI3LjQ5NDcxMzYsMTIuMjQ0NDExMyBDMjcuNTI0NDE3MywxNi45ODg2NTk0IDI3LjUxMDc4NjIsMjEuNzMzMzE0NCAyNy41MzkzMTIzLDI2LjQ3NzU2MjYgQzI3LjU0NDc2MjMsMjcuNDA1NzAxIDI3LjAyNTU1ODIsMjcuNDk2NjQzMSAyNi4yODkwNjk2LDI3LjQ5MzU5MTMgQzIyLjEyMDc4ODEsMjcuNDc2NTAxNSAxNy45NTIwOTk4LDI3LjQ4NTQ1MzMgMTMuNzgzNjE0OCwyNy40ODUyNDk5IiBpZD0iRmlsbC0xIiBmaWxsPSIjRkZGRkZGIiBtYXNrPSJ1cmwoI21hc2stMikiPjwvcGF0aD4KICAgICAgICAgICAgICAgICAgICA8L2c+CiAgICAgICAgICAgICAgICAgICAgPHBhdGggZD0iTTcuODUyMDczODQsNy44MDMyODMyMSBDNy44NTE0NjM0OSw4LjE3NTE4OTYyIDcuODUwMDM5MzQsOC41NDY4OTI1OCA3Ljg1MTg3MDM5LDguOTE4Nzk4OTkgQzcuODU0OTIyMTQsOS41NjkwMjQ4NSA3LjQ5MDk1MDI4LDkuODE0MTgxOTggNi44ODU2ODY4NCw5LjgxNDU4OTk5IEM2LjI3Nzc3ODU1LDkuODE1MTk5MjMgNS45MjA1MjA1Myw5LjU2NDk1NTg2IDUuOTIzOTc5MTgsOC45MTU1NDM3OSBDNS45MjcyMzQzOCw4LjIzOTY4MzI0IDUuOTM5MjM3OTIsNy41NjMyMTIzNCA1LjkyMTEzMDg4LDYuODg3NTU1MjMgQzUuOTAzMDIzODQsNi4yMDc2MjU2OCA2LjIxMTI1MDQzLDUuODkxODcxNDUgNi44OTA3NzMwOSw1Ljg5MjQ4MDkxIEM3LjU3MTUxNjQ0LDUuODkzMDkyMTUgNy44ODYwNDk5Nyw2LjIxMTQ5MTIzIDcuODU0OTIyMTQsNi44OTA4MTA0MyBDNy44NDEwODc1NSw3LjE5NDM1NzY4IDcuODUyNjg0MTksNy40OTkxMjU2MiA3Ljg1MjA3Mzg0LDcuODAzMjgzMjEiIGlkPSJGaWxsLTQiIGZpbGw9IiNGRkZGRkYiPjwvcGF0aD4KICAgICAgICAgICAgICAgICAgICA8cGF0aCBkPSJNMTEuODI4MTU2Miw3Ljg4NjE0ODM2IEMxMS44MjgzNTk2LDcuNTE0MjQxOTUgMTEuODI4NTYzMSw3LjE0MjMzNTU0IDExLjgyODM1OTYsNi43NzA0MjkxMyBDMTEuODI3OTUyNyw2LjExMTQ1NDkyIDEyLjIxMDg0NTQsNS44OTA1MDgzMyAxMi44MDk1OTg1LDUuODkzOTY2OTggQzEzLjQyMTk4MjcsNS44OTc0MjU2MyAxMy43NjQ1OTIzLDYuMTU3MDI3NjkgMTMuNzU2MDQ3NCw2LjgwNTIxOTA2IEMxMy43NDc1MDI1LDcuNDQ3NTEwMzggMTMuNzM0ODg4Niw4LjA5MDYxNTUgMTMuNzU5NzA5NSw4LjczMjA5MzAyIEMxMy43ODY5NzE4LDkuNDM2NjQwMDEgMTMuNTIxMDYyOCw5LjgyMDk1Njg2IDEyLjc3MTU1MzMsOS44MTc3MjIxNyBDMTEuOTk4NDQzNyw5LjgxNDI0MzAxIDExLjc4MzgwNDEsOS4zNzc2Mzk1NCAxMS44MjUxMDQ0LDguNjk3MzAzMDkgQzExLjg0MTU4MzksOC40Mjc5MzU0MyAxMS44Mjc5NTI3LDguMTU2NTMzMjcgMTEuODI4MTU2Miw3Ljg4NjE0ODM2IiBpZD0iRmlsbC02IiBmaWxsPSIjRkZGRkZGIj48L3BhdGg+CiAgICAgICAgICAgICAgICAgICAgPHBhdGggZD0iTTUuOTMxNTA2ODMsMTMuNjk3NTkyOSBDNS45MzE1MDY4MywxMy4zMjU4ODk5IDUuODA3ODA5MjksMTIuODg3MDQ4NSA1Ljk2MzY1MTkxLDEyLjU5OTc3NzMgQzYuMTQ2NTUzMzcsMTIuMjYyNDU3MyA2LjU3MjU3NzQ1LDExLjg1MTY5MiA2Ljg5MjQwMDY4LDExLjg1MjMwMTcgQzcuMjExNDEwMTIsMTEuODUyNzA5MiA3Ljc0MzgzODUsMTIuMjgxNzg1MSA3LjgwNDQ2NjU3LDEyLjU5NTkxMTcgQzcuOTQzMDE1OTQsMTMuMzEzMDcyNiA3Ljg0OTIyNTU0LDE0LjA3NDc4OSA3Ljg1MTY2Njk0LDE0LjgxODM5ODQgQzcuODUzOTA0ODksMTUuNDY5MjM0NiA3LjQ4OTcyOTU4LDE1LjcxMTk1MDQgNi44ODQyNjI2OSwxNS43MTE5NTA0IEM2LjI3NTMzNzE1LDE1LjcxMjE1MzggNS45MTgyODI1OSwxNS40NjI3MjQyIDUuOTIzNzc1NzMsMTQuODEzMTA4NyBDNS45MjcwMzA5MywxNC40NDEyMDIzIDUuOTI0Mzg2MDgsMTQuMDY5NDk5MyA1LjkyNDM4NjA4LDEzLjY5NzU5MjkgQzUuOTI2ODI3NDgsMTMuNjk3NTkyOSA1LjkyOTA2NTQzLDEzLjY5NzU5MjkgNS45MzE1MDY4MywxMy42OTc1OTI5IiBpZD0iRmlsbC04IiBmaWxsPSIjRkZGRkZGIj48L3BhdGg+CiAgICAgICAgICAgICAgICAgICAgPHBhdGggZD0iTTExLjgzMjk3NzksMTMuNjA4MjE3NCBDMTEuODMzMzg0OCwxMy4yNzAyODcxIDExLjcxNDU3MDEsMTIuODYxOTYzMSAxMS44NjI2ODE2LDEyLjYxMTUxNjMgQzEyLjA2MTQ1MjIsMTIuMjc1NDE3MSAxMi40NjQ2ODk5LDExLjg1NTA4OTYgMTIuNzgzNDk1OSwxMS44NTIyMjcxIEMxMy4xMDMxMTU2LDExLjg0OTM5MyAxMy42NDkzNzg2LDEyLjI3NTIxMzYgMTMuNzA0OTIwNCwxMi41ODM2NDM3IEMxMy44NDA0MTgxLDEzLjMzNjYxMTcgMTMuODQwMjE0NiwxNC4xNDY1NDU4IDEzLjcwNjM0NDYsMTQuODk5OTIwNyBDMTMuNjUwNTk5MywxNS4yMTM4NDM5IDEzLjExNzc2NCwxNS42NDg0MTI5IDEyLjc5Nzk0MDgsMTUuNjUxNjg3NSBDMTIuNDc4NzI3OSwxNS42NTQ5MjMzIDEyLjAxNzkxMzksMTUuMjQ3NjE2NiAxMS44NjkzOTU1LDE0LjkxMDA5MzIgQzExLjcwNzI0NTksMTQuNTQyMDUyNCAxMS44MzI1NzEsMTQuMDQ3NjY5MSAxMS44MzI5Nzc5LDEzLjYwODIxNzQiIGlkPSJGaWxsLTEwIiBmaWxsPSIjRkZGRkZGIj48L3BhdGg+CiAgICAgICAgICAgICAgICAgICAgPHBhdGggZD0iTTUuOTMwMTIzMzcsMTkuNTA3ODk4MSBDNS45MzAzMjY4MiwxOS4xNjk3NjQ0IDUuODExMzA4NjMsMTguNzYxNjQzOSA1Ljk1OTQyMDE1LDE4LjUxMDk5MzYgQzYuMTU3OTg3MjUsMTguMTc0NjkwOSA2LjU2MTAyMTQ5LDE3Ljc1NDU2NjkgNi44ODAwMzA5MywxNy43NTE0OTY2IEM3LjIwMDA1NzYyLDE3Ljc0ODI2IDcuNzQ3NTQxMjgsMTguMTczMjY2OCA3LjgwMjg3OTY2LDE4LjQ4MTA4NjUgQzcuOTM4Mzc3MjksMTkuMjM0MjU4IDcuOTM3OTcwMzksMjAuMDQ0MTkyIDcuODA0MTAwMzYsMjAuNzk3OTczOSBDNy43NDgxNTE2MywyMS4xMTE4OTcxIDcuMjE1OTI2NzEsMjEuNTQ3MDc2NCA2Ljg5NjMwNjkyLDIxLjU1MDU1OTYgQzYuNTc2ODkwNTksMjEuNTU0MTk3MiA2LjExNTQ2NjIyLDIxLjE0NzI5NzQgNS45NjY3NDQzNSwyMC44MDk5Nzc0IEM1LjgwNDU5NDc4LDIwLjQ0MjE0IDUuOTI5OTE5OTIsMTkuOTQ3MzQ5OSA1LjkzMDEyMzM3LDE5LjUwNzg5ODEiIGlkPSJGaWxsLTEyIiBmaWxsPSIjRkZGRkZGIj48L3BhdGg+CiAgICAgICAgICAgICAgICAgICAgPHBhdGggZD0iTTExLjgzMjc3NDUsMTkuNTA4MDQwNSBDMTEuODMyOTc3OSwxOS4xNzAxMTAyIDExLjcxNDE2MzIsMTguNzYxOTg5OCAxMS44NjIwNzEzLDE4LjUxMTMzOTUgQzEyLjA2MDQzNDksMTguMTc1MDM2OCAxMi40NjMwNjIzLDE3Ljc1NDcwOTMgMTIuNzgxODY4MywxNy43NTE0MzU1IEMxMy4xMDE2OTE1LDE3Ljc0ODE5ODkgMTMuNjQ5MTc1MiwxOC4xNzI3OTg5IDEzLjcwNDcxNywxOC40ODA2MTg1IEMxMy44NDAyMTQ2LDE5LjIzMzU4NjYgMTMuODQwNDE4MSwyMC4wNDM1MjA2IDEzLjcwNjc1MTUsMjAuNzk3MDk5MSBDMTMuNjUxMDA2MiwyMS4xMTEyMjU3IDEzLjExODk4NDcsMjEuNTQ2ODExOSAxMi43OTkxNjE1LDIxLjU1MDQ5ODYgQzEyLjQ3OTc0NTIsMjEuNTU0MTM2MSAxMi4wMTgzMjA4LDIxLjE0NzIzNjMgMTEuODY5NTk4OSwyMC44MDk5MTY0IEMxMS43MDcyNDU5LDIwLjQ0MjA3OSAxMS44MzI1NzEsMTkuOTQ3NDkyMyAxMS44MzI3NzQ1LDE5LjUwODA0MDUiIGlkPSJGaWxsLTE0IiBmaWxsPSIjRkZGRkZGIj48L3BhdGg+CiAgICAgICAgICAgICAgICA8L2c+CiAgICAgICAgICAgIDwvZz4KICAgICAgICA8L2c+CiAgICA8L2c+Cjwvc3ZnPg==;fontSize=14;fontFamily=IBM Plex Sans;fontSource=fonts%2FIBMPlexSans-Regular.woff;labelPosition=left;verticalLabelPosition=middle;align=right;verticalAlign=middle;spacingBottom=-2;spacingTop=-7;" parent="4AtUD67M2sYMyPP23X5i-31" vertex="1">
          <mxGeometry x="90" y="93" width="49" height="50" as="geometry" />
        </mxCell>
        <mxCell id="4AtUD67M2sYMyPP23X5i-41" value="" style="pointerEvents=1;shadow=0;dashed=0;html=1;strokeColor=none;fillColor=#666666;labelPosition=center;verticalLabelPosition=bottom;verticalAlign=top;align=center;outlineConnect=0;shape=mxgraph.veeam.server;" parent="4AtUD67M2sYMyPP23X5i-31" vertex="1">
          <mxGeometry x="139" y="160.00000000000003" width="71.6" height="18.8" as="geometry" />
        </mxCell>
        <mxCell id="4AtUD67M2sYMyPP23X5i-42" value="Aspera Client" style="text;html=1;align=center;verticalAlign=middle;resizable=0;points=[];autosize=1;strokeColor=none;fillColor=none;" parent="4AtUD67M2sYMyPP23X5i-31" vertex="1">
          <mxGeometry x="30.000000000000014" y="154.4" width="100" height="30" as="geometry" />
        </mxCell>
        <mxCell id="01_2fJyM1_O9oEu3sOHw-0" value="&lt;font color=&quot;#f7f7f7&quot;&gt;VPN Connection&lt;/font&gt;" style="image;aspect=fixed;perimeter=ellipsePerimeter;html=1;align=center;shadow=0;dashed=0;fontColor=#4277BB;labelBackgroundColor=default;fontSize=12;spacingTop=3;image=img/lib/ibm/vpc/VPNConnection.svg;" vertex="1" parent="4AtUD67M2sYMyPP23X5i-1">
          <mxGeometry x="410" y="216" width="45" height="45" as="geometry" />
        </mxCell>
        <mxCell id="01_2fJyM1_O9oEu3sOHw-1" style="edgeStyle=orthogonalEdgeStyle;rounded=0;orthogonalLoop=1;jettySize=auto;html=1;exitX=1;exitY=0.5;exitDx=0;exitDy=0;entryX=0;entryY=0.5;entryDx=0;entryDy=0;" edge="1" parent="4AtUD67M2sYMyPP23X5i-1" source="4AtUD67M2sYMyPP23X5i-36" target="01_2fJyM1_O9oEu3sOHw-0">
          <mxGeometry relative="1" as="geometry" />
        </mxCell>
        <mxCell id="GR-Tek1gfr92fxXJqfzg-0" style="edgeStyle=orthogonalEdgeStyle;rounded=0;orthogonalLoop=1;jettySize=auto;html=1;exitX=0.5;exitY=1;exitDx=0;exitDy=0;entryX=0.157;entryY=-0.043;entryDx=0;entryDy=0;entryPerimeter=0;" edge="1" parent="4AtUD67M2sYMyPP23X5i-1" source="01_2fJyM1_O9oEu3sOHw-0" target="Avl5V7ywEmpvwm01zEsU-4">
          <mxGeometry relative="1" as="geometry" />
        </mxCell>
      </root>
    </mxGraphModel>
  </diagram>
  <diagram id="d_rHYX85ZgiYxVgOrEw6" name="aspera-vpc-local">
    <mxGraphModel dx="2074" dy="1230" grid="1" gridSize="10" guides="1" tooltips="1" connect="1" arrows="1" fold="1" page="1" pageScale="1" pageWidth="850" pageHeight="1100" math="0" shadow="0">
      <root>
        <mxCell id="0" />
        <mxCell id="1" parent="0" />
        <mxCell id="FNMUlUJ3g3bvDXa8bkuB-1" value="" style="rounded=0;whiteSpace=wrap;html=1;fontFamily=IBM Plex Sans;fontSource=fonts%2FIBMPlexSans-Regular.woff;fontSize=14;spacingBottom=-28;spacingTop=0;labelPosition=-100;verticalLabelPosition=top;align=center;verticalAlign=bottom;spacingLeft=9;spacing=0;expand=0;recursiveResize=0;spacingRight=0;container=1;collapsible=0;strokeColor=#1192E8;fillColor=none;" parent="1" vertex="1">
          <mxGeometry x="330" y="120" width="480" height="440" as="geometry">
            <mxRectangle width="670" as="alternateBounds" />
          </mxGeometry>
        </mxCell>
        <mxCell id="FNMUlUJ3g3bvDXa8bkuB-2" value="" style="rounded=0;whiteSpace=wrap;html=1;fontFamily=IBM Plex Sans;fontSource=fonts%2FIBMPlexSans-Regular.woff;fontSize=14;spacingBottom=-28;spacingTop=0;labelPosition=-100;verticalLabelPosition=top;align=center;verticalAlign=bottom;spacingLeft=9;spacing=0;expand=0;recursiveResize=0;spacingRight=0;container=1;collapsible=0;strokeColor=#1192E8;fillColor=none;" parent="FNMUlUJ3g3bvDXa8bkuB-1" vertex="1">
          <mxGeometry x="20" y="211" width="440" height="210" as="geometry">
            <mxRectangle width="670" as="alternateBounds" />
          </mxGeometry>
        </mxCell>
        <mxCell id="FNMUlUJ3g3bvDXa8bkuB-3" value="" style="rounded=0;whiteSpace=wrap;html=1;fontFamily=IBM Plex Sans;fontSource=fonts%2FIBMPlexSans-Regular.woff;fontSize=14;spacingBottom=-28;spacingTop=0;labelPosition=-100;verticalLabelPosition=top;align=center;verticalAlign=bottom;spacingLeft=9;spacing=0;expand=0;recursiveResize=0;spacingRight=0;container=1;collapsible=0;strokeColor=#1192E8;fillColor=none;" parent="FNMUlUJ3g3bvDXa8bkuB-2" vertex="1">
          <mxGeometry x="19.25" y="50" width="400.75" height="140" as="geometry">
            <mxRectangle width="670" as="alternateBounds" />
          </mxGeometry>
        </mxCell>
        <mxCell id="FNMUlUJ3g3bvDXa8bkuB-4" value="" style="rounded=0;whiteSpace=wrap;html=1;strokeColor=none;fillColor=#1192E8;" parent="FNMUlUJ3g3bvDXa8bkuB-3" vertex="1">
          <mxGeometry width="7" height="37" as="geometry" />
        </mxCell>
        <mxCell id="FNMUlUJ3g3bvDXa8bkuB-5" value="VPC Subnet" style="text;html=1;strokeColor=none;fillColor=none;align=left;verticalAlign=middle;whiteSpace=wrap;rounded=0;fontFamily=IBM Plex Sans;fontSource=fonts%2FIBMPlexSans-Regular.woff;fontSize=14;" parent="FNMUlUJ3g3bvDXa8bkuB-3" vertex="1">
          <mxGeometry x="51" y="8" width="163" height="20" as="geometry" />
        </mxCell>
        <mxCell id="FNMUlUJ3g3bvDXa8bkuB-6" value="" style="shape=image;aspect=fixed;image=data:image/svg+xml,PD94bWwgdmVyc2lvbj0iMS4wIiBlbmNvZGluZz0iVVRGLTgiPz4KPHN2ZyB3aWR0aD0iMjlweCIgaGVpZ2h0PSIyOHB4IiB2aWV3Qm94PSIwIDAgMjkgMjgiIHZlcnNpb249IjEuMSIgeG1sbnM9Imh0dHA6Ly93d3cudzMub3JnLzIwMDAvc3ZnIiB4bWxuczp4bGluaz0iaHR0cDovL3d3dy53My5vcmcvMTk5OS94bGluayI+CiAgICA8IS0tIEdlbmVyYXRvcjogU2tldGNoIDUzICg3MjUyMCkgLSBodHRwczovL3NrZXRjaGFwcC5jb20gLS0+CiAgICA8dGl0bGU+VkxBTiBCbGFjazwvdGl0bGU+CiAgICA8ZGVzYz5DcmVhdGVkIHdpdGggU2tldGNoLjwvZGVzYz4KICAgIDxnIGlkPSJQYWdlLTEiIHN0cm9rZT0ibm9uZSIgc3Ryb2tlLXdpZHRoPSIxIiBmaWxsPSJub25lIiBmaWxsLXJ1bGU9ImV2ZW5vZGQiPgogICAgICAgIDxwYXRoIGQ9Ik0xOC43NTQ2Mjk2LDI2LjAwMDEyNSBMMjQuNzU0NjI5NiwyNi4wMDAxMjUgTDI0Ljc1NDYyOTYsMjEuMDAwMTI1IEwxOC43NTQ2Mjk2LDIxLjAwMDEyNSBMMTguNzU0NjI5NiwyNi4wMDAxMjUgWiBNNC43NTQ2Mjk2MywyNi4wMDAxMjUgTDEwLjc1NDYyOTYsMjYuMDAwMTI1IEwxMC43NTQ2Mjk2LDIxLjAwMDEyNSBMNC43NTQ2Mjk2MywyMS4wMDAxMjUgTDQuNzU0NjI5NjMsMjYuMDAwMTI1IFogTTExLjc1NDYyOTYsNy4wMDAxMjUgTDE3Ljc1NDYyOTYsNy4wMDAxMjUgTDE3Ljc1NDYyOTYsMi4wMDAxMjUgTDExLjc1NDYyOTYsMi4wMDAxMjUgTDExLjc1NDYyOTYsNy4wMDAxMjUgWiBNMjguNzU0NjI5NiwxNS4wMDAxMjUgTDI4Ljc1NDYyOTYsMTMuMDAwMTI1IEwxNS43NTQ2Mjk2LDEzLjAwMDEyNSBMMTUuNzU0NjI5Niw5LjAwMDEyNSBMMTcuNzU0NjI5Niw5LjAwMDEyNSBDMTguODU5NjI5Niw5LjAwMDEyNSAxOS43NTQ2Mjk2LDguMTA0MTI1IDE5Ljc1NDYyOTYsNy4wMDAxMjUgTDE5Ljc1NDYyOTYsMi4wMDAxMjUgQzE5Ljc1NDYyOTYsMC44OTYxMjUgMTguODU5NjI5NiwwLjAwMDEyNSAxNy43NTQ2Mjk2LDAuMDAwMTI1IEwxMS43NTQ2Mjk2LDAuMDAwMTI1IEMxMC42NTA2Mjk2LDAuMDAwMTI1IDkuNzU0NjI5NjMsMC44OTYxMjUgOS43NTQ2Mjk2MywyLjAwMDEyNSBMOS43NTQ2Mjk2Myw3LjAwMDEyNSBDOS43NTQ2Mjk2Myw4LjEwNDEyNSAxMC42NTA2Mjk2LDkuMDAwMTI1IDExLjc1NDYyOTYsOS4wMDAxMjUgTDEzLjc1NDYyOTYsOS4wMDAxMjUgTDEzLjc1NDYyOTYsMTMuMDAwMTI1IEwwLjc1NDYyOTYzLDEzLjAwMDEyNSBMMC43NTQ2Mjk2MywxNS4wMDAxMjUgTDYuNzU0NjI5NjMsMTUuMDAwMTI1IEw2Ljc1NDYyOTYzLDE5LjAwMDEyNSBMNC43NTQ2Mjk2MywxOS4wMDAxMjUgQzMuNjUwNjI5NjMsMTkuMDAwMTI1IDIuNzU0NjI5NjMsMTkuODk2MTI1IDIuNzU0NjI5NjMsMjEuMDAwMTI1IEwyLjc1NDYyOTYzLDI2LjAwMDEyNSBDMi43NTQ2Mjk2MywyNy4xMDUxMjUgMy42NTA2Mjk2MywyOC4wMDAxMjUgNC43NTQ2Mjk2MywyOC4wMDAxMjUgTDEwLjc1NDYyOTYsMjguMDAwMTI1IEMxMS44NTk2Mjk2LDI4LjAwMDEyNSAxMi43NTQ2Mjk2LDI3LjEwNTEyNSAxMi43NTQ2Mjk2LDI2LjAwMDEyNSBMMTIuNzU0NjI5NiwyMS4wMDAxMjUgQzEyLjc1NDYyOTYsMTkuODk2MTI1IDExLjg1OTYyOTYsMTkuMDAwMTI1IDEwLjc1NDYyOTYsMTkuMDAwMTI1IEw4Ljc1NDYyOTYzLDE5LjAwMDEyNSBMOC43NTQ2Mjk2MywxNS4wMDAxMjUgTDIwLjc1NDYyOTYsMTUuMDAwMTI1IEwyMC43NTQ2Mjk2LDE5LjAwMDEyNSBMMTguNzU0NjI5NiwxOS4wMDAxMjUgQzE3LjY1MDYyOTYsMTkuMDAwMTI1IDE2Ljc1NDYyOTYsMTkuODk2MTI1IDE2Ljc1NDYyOTYsMjEuMDAwMTI1IEwxNi43NTQ2Mjk2LDI2LjAwMDEyNSBDMTYuNzU0NjI5NiwyNy4xMDUxMjUgMTcuNjUwNjI5NiwyOC4wMDAxMjUgMTguNzU0NjI5NiwyOC4wMDAxMjUgTDI0Ljc1NDYyOTYsMjguMDAwMTI1IEMyNS44NTk2Mjk2LDI4LjAwMDEyNSAyNi43NTQ2Mjk2LDI3LjEwNTEyNSAyNi43NTQ2Mjk2LDI2LjAwMDEyNSBMMjYuNzU0NjI5NiwyMS4wMDAxMjUgQzI2Ljc1NDYyOTYsMTkuODk2MTI1IDI1Ljg1OTYyOTYsMTkuMDAwMTI1IDI0Ljc1NDYyOTYsMTkuMDAwMTI1IEwyMi43NTQ2Mjk2LDE5LjAwMDEyNSBMMjIuNzU0NjI5NiwxNS4wMDAxMjUgTDI4Ljc1NDYyOTYsMTUuMDAwMTI1IFoiIGlkPSJWTEFOLUJsYWNrIiBmaWxsPSIjMDAwMDAwIj48L3BhdGg+CiAgICA8L2c+Cjwvc3ZnPg==;" parent="FNMUlUJ3g3bvDXa8bkuB-3" vertex="1">
          <mxGeometry x="19" y="6" width="20" height="19.31" as="geometry" />
        </mxCell>
        <mxCell id="FNMUlUJ3g3bvDXa8bkuB-7" value="Workload VSI" style="pointerEvents=1;shadow=0;dashed=0;strokeColor=none;fillColor=#666666;labelPosition=center;verticalLabelPosition=bottom;verticalAlign=top;align=center;outlineConnect=0;shape=image;labelBackgroundColor=default;imageAspect=0;image=data:image/svg+xml,PHN2ZyB4bWxucz0iaHR0cDovL3d3dy53My5vcmcvMjAwMC9zdmciIHZpZXdCb3g9IjAgMCA0OSA0OSIgaWQ9IkxheWVyXzEiPjxkZWZzPjxzdHlsZT4uY2xzLTF7ZmlsbDpub25lO30uY2xzLTJ7ZmlsbDojZmZmO30uY2xzLTN7ZmlsbDojMTk4MDM4O308L3N0eWxlPjwvZGVmcz48cmVjdCByeT0iOCIgcng9IjgiIGhlaWdodD0iNDgiIHdpZHRoPSI0OCIgeT0iLjUiIHg9Ii41IiBjbGFzcz0iY2xzLTMiLz48cGF0aCBkPSJNMjcsMjIuNmgtNWMtLjcsMC0xLjIsLjYtMS4yLDEuM3Y4LjFjMCwuNywuNiwxLjIsMS4yLDEuMmg1Yy43LDAsMS4yLS42LDEuMi0xLjJ2LTguMWMwLS43LS42LTEuMi0xLjItMS4zWm0wLDEuM3YxLjloLTV2LTEuOWg1Wm0wLDMuMXYxLjloLTV2LTEuOWg1Wm0tNSw1di0xLjloNXYxLjloLTVaIiBjbGFzcz0iY2xzLTIiLz48cGF0aCBkPSJNMzAuNywyMC44czAsMCwwLDBjLS43LTMuNC00LTUuNi03LjMtNC45LTIuNSwuNS00LjQsMi40LTQuOSw0LjksMCwwLDAsMCwwLDAtMi41LC41LTQuMiwzLTMuNyw1LjUsLjQsMi4yLDIuMywzLjgsNC42LDMuOGguM3YtMS4yaC0uM2MtMS45LDAtMy40LTEuNi0zLjQtMy41LDAtLjIsMC0uMywwLS41LC4zLTEuNSwxLjUtMi43LDMtMi45aC42YzAtLjEsMC0uMSwwLS4ydi0uNmMuNS0yLjIsMi4yLTMuOSw0LjQtNC4yLC42LDAsMS4yLDAsMS44LDAsMiwuNSwzLjUsMi4xLDMuOSw0LjF2LjZxLjEsMCwuMiwwaC43Yy43LC4yLDEuNCwuNiwxLjksMS4xLDEuMywxLjMsMS4zLDMuNSwwLDQuOS0uNiwuNi0xLjUsMS0yLjQsMWgtLjN2MS4yaC4zYzIuNiwwLDQuNy0yLjEsNC42LTQuNywwLTIuMi0xLjYtNC4xLTMuOC00LjZoMFoiIGNsYXNzPSJjbHMtMiIvPjxyZWN0IGhlaWdodD0iMjAiIHdpZHRoPSIyMCIgeT0iMTQuNSIgeD0iMTQuNSIgY2xhc3M9ImNscy0xIiBpZD0iX1RyYW5zcGFyZW50X1JlY3RhbmdsZV8iLz48L3N2Zz4=;" parent="FNMUlUJ3g3bvDXa8bkuB-3" vertex="1">
          <mxGeometry x="39" y="45" width="50" height="50" as="geometry" />
        </mxCell>
        <mxCell id="FNMUlUJ3g3bvDXa8bkuB-8" value="" style="whiteSpace=wrap;html=1;fillColor=none;strokeColor=#00FF22;dashed=1;strokeWidth=5;" parent="FNMUlUJ3g3bvDXa8bkuB-3" vertex="1">
          <mxGeometry x="190" y="30" width="187" height="100" as="geometry" />
        </mxCell>
        <mxCell id="FNMUlUJ3g3bvDXa8bkuB-9" value="" style="edgeStyle=orthogonalEdgeStyle;rounded=0;orthogonalLoop=1;jettySize=auto;html=1;endArrow=none;endFill=0;dashed=1;" parent="FNMUlUJ3g3bvDXa8bkuB-3" source="FNMUlUJ3g3bvDXa8bkuB-10" target="FNMUlUJ3g3bvDXa8bkuB-13" edge="1">
          <mxGeometry relative="1" as="geometry" />
        </mxCell>
        <mxCell id="FNMUlUJ3g3bvDXa8bkuB-10" value="Aspera Server" style="shape=image;verticalLabelPosition=bottom;labelBackgroundColor=default;verticalAlign=top;aspect=fixed;imageAspect=0;image=data:image/svg+xml,PHN2ZyB4bWxucz0iaHR0cDovL3d3dy53My5vcmcvMjAwMC9zdmciIHZpZXdCb3g9IjAgMCA0OSA0OSIgaWQ9IkxheWVyXzEiPjxkZWZzPjxzdHlsZT4uY2xzLTF7ZmlsbDpub25lO30uY2xzLTJ7ZmlsbDojZmZmO30uY2xzLTN7ZmlsbDojMTk4MDM4O308L3N0eWxlPjwvZGVmcz48cmVjdCByeT0iOCIgcng9IjgiIGhlaWdodD0iNDgiIHdpZHRoPSI0OCIgeT0iLjUiIHg9Ii41IiBjbGFzcz0iY2xzLTMiLz48cGF0aCBkPSJNMjcsMjIuNmgtNWMtLjcsMC0xLjIsLjYtMS4yLDEuM3Y4LjFjMCwuNywuNiwxLjIsMS4yLDEuMmg1Yy43LDAsMS4yLS42LDEuMi0xLjJ2LTguMWMwLS43LS42LTEuMi0xLjItMS4zWm0wLDEuM3YxLjloLTV2LTEuOWg1Wm0wLDMuMXYxLjloLTV2LTEuOWg1Wm0tNSw1di0xLjloNXYxLjloLTVaIiBjbGFzcz0iY2xzLTIiLz48cGF0aCBkPSJNMzAuNywyMC44czAsMCwwLDBjLS43LTMuNC00LTUuNi03LjMtNC45LTIuNSwuNS00LjQsMi40LTQuOSw0LjksMCwwLDAsMCwwLDAtMi41LC41LTQuMiwzLTMuNyw1LjUsLjQsMi4yLDIuMywzLjgsNC42LDMuOGguM3YtMS4yaC0uM2MtMS45LDAtMy40LTEuNi0zLjQtMy41LDAtLjIsMC0uMywwLS41LC4zLTEuNSwxLjUtMi43LDMtMi45aC42YzAtLjEsMC0uMSwwLS4ydi0uNmMuNS0yLjIsMi4yLTMuOSw0LjQtNC4yLC42LDAsMS4yLDAsMS44LDAsMiwuNSwzLjUsMi4xLDMuOSw0LjF2LjZxLjEsMCwuMiwwaC43Yy43LC4yLDEuNCwuNiwxLjksMS4xLDEuMywxLjMsMS4zLDMuNSwwLDQuOS0uNiwuNi0xLjUsMS0yLjQsMWgtLjN2MS4yaC4zYzIuNiwwLDQuNy0yLjEsNC42LTQuNywwLTIuMi0xLjYtNC4xLTMuOC00LjZoMFoiIGNsYXNzPSJjbHMtMiIvPjxyZWN0IGhlaWdodD0iMjAiIHdpZHRoPSIyMCIgeT0iMTQuNSIgeD0iMTQuNSIgY2xhc3M9ImNscy0xIiBpZD0iX1RyYW5zcGFyZW50X1JlY3RhbmdsZV8iLz48L3N2Zz4=;" parent="FNMUlUJ3g3bvDXa8bkuB-3" vertex="1">
          <mxGeometry x="214" y="45" width="50" height="50" as="geometry" />
        </mxCell>
        <mxCell id="FNMUlUJ3g3bvDXa8bkuB-11" value="" style="edgeStyle=orthogonalEdgeStyle;rounded=0;orthogonalLoop=1;jettySize=auto;html=1;strokeWidth=2;startArrow=classic;startFill=1;endArrow=none;endFill=0;" parent="FNMUlUJ3g3bvDXa8bkuB-3" source="FNMUlUJ3g3bvDXa8bkuB-10" target="FNMUlUJ3g3bvDXa8bkuB-7" edge="1">
          <mxGeometry relative="1" as="geometry" />
        </mxCell>
        <mxCell id="FNMUlUJ3g3bvDXa8bkuB-12" value="NFS Mount" style="edgeLabel;html=1;align=center;verticalAlign=middle;resizable=0;points=[];" parent="FNMUlUJ3g3bvDXa8bkuB-11" vertex="1" connectable="0">
          <mxGeometry x="-0.2393" y="2" relative="1" as="geometry">
            <mxPoint x="-26" y="-14" as="offset" />
          </mxGeometry>
        </mxCell>
        <mxCell id="FNMUlUJ3g3bvDXa8bkuB-13" value="Block &#xa;Storage" style="shape=image;aspect=fixed;image=data:image/svg+xml,PHN2ZyBpZD0iTGF5ZXJfMSIgZGF0YS1uYW1lPSJMYXllciAxIiB4bWxucz0iaHR0cDovL3d3dy53My5vcmcvMjAwMC9zdmciIHZpZXdCb3g9IjAgMCA0OSA0OSI+PGRlZnM+PHN0eWxlPi5jbHMtMXtmaWxsOiMwZjYyZmU7fS5jbHMtMntmaWxsOiNmZmY7fS5jbHMtM3tmaWxsOm5vbmU7fTwvc3R5bGU+PC9kZWZzPjxyZWN0IGNsYXNzPSJjbHMtMSIgeD0iMC41IiB5PSIwLjUiIHdpZHRoPSI0OCIgaGVpZ2h0PSI0OCIgcng9IjgiLz48cGF0aCBjbGFzcz0iY2xzLTIiIGQ9Ik0zMiwyN0gzMC43NXYxLjI1SDMyVjMySDE3VjI4LjI1aDEuMjVWMjdIMTdhMS4yNSwxLjI1LDAsMCwwLTEuMjUsMS4yNVYzMkExLjI1LDEuMjUsMCwwLDAsMTcsMzMuMjVIMzJBMS4yNSwxLjI1LDAsMCwwLDMzLjI1LDMyVjI4LjI1QTEuMjUsMS4yNSwwLDAsMCwzMiwyN1oiLz48Y2lyY2xlIGNsYXNzPSJjbHMtMiIgY3g9IjE4Ljg4IiBjeT0iMzAuMTMiIHI9IjAuNjMiLz48cGF0aCBjbGFzcz0iY2xzLTIiIGQ9Ik0yMy44OCwyN0gxOS41VjIyLjYyaDQuMzhabS0zLjEzLTEuMjVoMS44N1YyMy44OEgyMC43NVoiLz48cGF0aCBjbGFzcz0iY2xzLTIiIGQ9Ik0yOS41LDI3SDI1LjEyVjIyLjYySDI5LjVabS0zLjEyLTEuMjVoMS44N1YyMy44OEgyNi4zOFoiLz48cGF0aCBjbGFzcz0iY2xzLTIiIGQ9Ik0yMy44OCwyMS4zOEgxOS41VjE3aDQuMzhabS0zLjEzLTEuMjZoMS44N1YxOC4yNUgyMC43NVoiLz48cGF0aCBjbGFzcz0iY2xzLTIiIGQ9Ik0yOS41LDIxLjM4SDI1LjEyVjE3SDI5LjVabS0zLjEyLTEuMjZoMS44N1YxOC4yNUgyNi4zOFoiLz48cmVjdCBjbGFzcz0iY2xzLTMiIHg9IjE0LjUiIHk9IjE0LjUiIHdpZHRoPSIyMCIgaGVpZ2h0PSIyMCIvPjwvc3ZnPg==;fontFamily=Helvetica;fontSize=12;labelPosition=center;verticalLabelPosition=bottom;align=center;verticalAlign=top;spacingTop=0;labelBackgroundColor=default;" parent="FNMUlUJ3g3bvDXa8bkuB-3" vertex="1">
          <mxGeometry x="310.75" y="45" width="50" height="50" as="geometry" />
        </mxCell>
        <mxCell id="FNMUlUJ3g3bvDXa8bkuB-14" value="" style="rounded=0;whiteSpace=wrap;html=1;strokeColor=none;fillColor=#1192E8;" parent="FNMUlUJ3g3bvDXa8bkuB-2" vertex="1">
          <mxGeometry width="7" height="37" as="geometry" />
        </mxCell>
        <mxCell id="FNMUlUJ3g3bvDXa8bkuB-15" value="IBM VPC" style="text;html=1;strokeColor=none;fillColor=none;align=left;verticalAlign=middle;whiteSpace=wrap;rounded=0;fontFamily=IBM Plex Sans;fontSource=fonts%2FIBMPlexSans-Regular.woff;fontSize=14;" parent="FNMUlUJ3g3bvDXa8bkuB-2" vertex="1">
          <mxGeometry x="51" y="8" width="163" height="20" as="geometry" />
        </mxCell>
        <mxCell id="FNMUlUJ3g3bvDXa8bkuB-16" value="" style="shape=image;aspect=fixed;image=data:image/svg+xml,PD94bWwgdmVyc2lvbj0iMS4wIiBlbmNvZGluZz0iVVRGLTgiPz4KPHN2ZyB3aWR0aD0iMjlweCIgaGVpZ2h0PSIyOHB4IiB2aWV3Qm94PSIwIDAgMjkgMjgiIHZlcnNpb249IjEuMSIgeG1sbnM9Imh0dHA6Ly93d3cudzMub3JnLzIwMDAvc3ZnIiB4bWxuczp4bGluaz0iaHR0cDovL3d3dy53My5vcmcvMTk5OS94bGluayI+CiAgICA8IS0tIEdlbmVyYXRvcjogU2tldGNoIDUzICg3MjUyMCkgLSBodHRwczovL3NrZXRjaGFwcC5jb20gLS0+CiAgICA8dGl0bGU+SUJNIFZQQyBCbGFjazwvdGl0bGU+CiAgICA8ZGVzYz5DcmVhdGVkIHdpdGggU2tldGNoLjwvZGVzYz4KICAgIDxnIGlkPSJQYWdlLTEiIHN0cm9rZT0ibm9uZSIgc3Ryb2tlLXdpZHRoPSIxIiBmaWxsPSJub25lIiBmaWxsLXJ1bGU9ImV2ZW5vZGQiPgogICAgICAgIDxnIGlkPSJJQk0tVlBDLUJsYWNrIiB0cmFuc2Zvcm09InRyYW5zbGF0ZSgwLjc1MDAwMCwgLTEuMDAwMDAwKSIgZmlsbD0iIzAwMDAwMCI+CiAgICAgICAgICAgIDxwYXRoIGQ9Ik0wLjAwMDksMS4wMDAyIEwwLjAwMDksOS4wMDAyIEw2LjU4NjksOS4wMDAyIEwyMC4wMDA5LDIyLjQxNDIgTDIwLjAwMDksMjkuMDAwMiBMMjguMDAwOSwyOS4wMDAyIEwyOC4wMDA5LDIxLjAwMDIgTDIxLjQxNTksMjEuMDAwMiBMOC4wMDA5LDcuNTg1MiBMOC4wMDA5LDEuMDAwMiBMMC4wMDA5LDEuMDAwMiBaIE0yLjAwMDksNy4wMDAyIEw2LjAwMDksNy4wMDAyIEw2LjAwMDksMy4wMDAyIEwyLjAwMDksMy4wMDAyIEwyLjAwMDksNy4wMDAyIFogTTIyLjAwMDksMjcuMDAxMiBMMjYuMDAxOSwyNy4wMDEyIEwyNi4wMDE5LDIzLjAwMDIgTDIyLjAwMDksMjMuMDAwMiBMMjIuMDAwOSwyNy4wMDEyIFoiIGlkPSJGaWxsLTEiPjwvcGF0aD4KICAgICAgICAgICAgPGcgaWQ9Ikdyb3VwLTgiIHRyYW5zZm9ybT0idHJhbnNsYXRlKDAuMDAwMDAwLCAwLjAwMTkwMCkiPgogICAgICAgICAgICAgICAgPGcgaWQ9Ikdyb3VwLTQiIHRyYW5zZm9ybT0idHJhbnNsYXRlKDExLjAwMDAwMCwgMC4wMDAwMDApIj4KICAgICAgICAgICAgICAgICAgICA8cGF0aCBkPSJNMTIuNjQ2Nyw2LjgxNzkgQzExLjU0MjcsNi44MTc5IDEwLjY0NjcsNS45MjI5IDEwLjY0NjcsNC44MTc5IEMxMC42NDY3LDMuNzEzOSAxMS41NDI3LDIuODE3OSAxMi42NDY3LDIuODE3OSBDMTMuNzUwNywyLjgxNzkgMTQuNjQ2NywzLjcxMzkgMTQuNjQ2Nyw0LjgxNzkgQzE0LjY0NTcsNS45MjE5IDEzLjc1MDcsNi44MTY5IDEyLjY0NjcsNi44MTc5IE0xNi43MzM3LDMuNTE4OSBDMTYuMzU2NywyLjQ5ODkgMTUuNTMxNywxLjY2NzkgMTQuNTE1NywxLjI4MDkgQzEyLjEyNzcsMC4zNzA5IDkuNzE3NywxLjc1NTkgOS4xNDI3LDMuOTk3OSBMMC4wMDA3LDMuOTk3OSBMMC4wMDA3LDUuOTk3OSBMOS4xNDI3LDUuOTk3OSBDOS41MDc3LDcuMzk3OSAxMC42MDE3LDguNDkwOSAxMi4wMDA3LDguODU1OSBMMTIuMDAwNywxNy45OTc5IEwxNC4wMDA3LDE3Ljk5NzkgTDE0LjAwMDcsOC44NTU5IEMxNi4yMjk3LDguMjgxOSAxNy42MTE3LDUuODk2OSAxNi43MzM3LDMuNTE4OSIgaWQ9IkZpbGwtMiI+PC9wYXRoPgogICAgICAgICAgICAgICAgPC9nPgogICAgICAgICAgICAgICAgPGcgaWQ9Ikdyb3VwLTciIHRyYW5zZm9ybT0idHJhbnNsYXRlKDAuMDAwMDAwLCAxMS4wMDAwMDApIj4KICAgICAgICAgICAgICAgICAgICA8cGF0aCBkPSJNMy42NDY3LDE1LjgxNzkgQzIuNTQyNywxNS44MTc5IDEuNjQ2NywxNC45MjI5IDEuNjQ2NywxMy44MTc5IEMxLjY0NjcsMTIuNzEzOSAyLjU0MjcsMTEuODE3OSAzLjY0NjcsMTEuODE3OSBDNC43NTA3LDExLjgxNzkgNS42NDY3LDEyLjcxMzkgNS42NDY3LDEzLjgxNzkgQzUuNjQ1NywxNC45MjE5IDQuNzUwNywxNS44MTY5IDMuNjQ2NywxNS44MTc5IEwzLjY0NjcsMTUuODE3OSBaIE0xNy4wMDA3LDEyLjk5NzkgTDcuODU4NywxMi45OTc5IEM3LjQ5MzcsMTEuNTk3OSA2LjQwMDcsMTAuNTA0OSA1LjAwMDcsMTAuMTM5OSBMNS4wMDA3LDAuOTk3OSBMMy4wMDA3LDAuOTk3OSBMMy4wMDA3LDEwLjEzOTkgQzAuNDg3NywxMC43ODQ5IC0wLjg1MTMsMTMuNjgzOSAwLjU5NDcsMTYuMTE5OSBDMS4xNTA3LDE3LjA1NTkgMi4xMTE3LDE3LjcyODkgMy4xODI3LDE3LjkyNjkgQzUuNDAyNywxOC4zMzc5IDcuMzUzNywxNi45Njk5IDcuODU4NywxNC45OTc5IEwxNy4wMDA3LDE0Ljk5NzkgTDE3LjAwMDcsMTIuOTk3OSBaIiBpZD0iRmlsbC01Ij48L3BhdGg+CiAgICAgICAgICAgICAgICA8L2c+CiAgICAgICAgICAgIDwvZz4KICAgICAgICA8L2c+CiAgICA8L2c+Cjwvc3ZnPg==;" parent="FNMUlUJ3g3bvDXa8bkuB-2" vertex="1">
          <mxGeometry x="20" y="6.849999999999909" width="20" height="19.31" as="geometry" />
        </mxCell>
        <mxCell id="FNMUlUJ3g3bvDXa8bkuB-17" value="" style="rounded=0;whiteSpace=wrap;html=1;strokeColor=none;fillColor=#1192E8;" parent="FNMUlUJ3g3bvDXa8bkuB-1" vertex="1">
          <mxGeometry width="7" height="37" as="geometry" />
        </mxCell>
        <mxCell id="FNMUlUJ3g3bvDXa8bkuB-18" value="IBM Cloud" style="text;html=1;strokeColor=none;fillColor=none;align=left;verticalAlign=middle;whiteSpace=wrap;rounded=0;fontFamily=IBM Plex Sans;fontSource=fonts%2FIBMPlexSans-Regular.woff;fontSize=14;" parent="FNMUlUJ3g3bvDXa8bkuB-1" vertex="1">
          <mxGeometry x="51" y="8" width="163" height="20" as="geometry" />
        </mxCell>
        <mxCell id="FNMUlUJ3g3bvDXa8bkuB-19" value="" style="shape=image;aspect=fixed;image=data:image/svg+xml,PD94bWwgdmVyc2lvbj0iMS4wIiBlbmNvZGluZz0iVVRGLTgiPz4KPHN2ZyB3aWR0aD0iMzNweCIgaGVpZ2h0PSIzMXB4IiB2aWV3Qm94PSIwIDAgMzMgMzEiIHZlcnNpb249IjEuMSIgeG1sbnM9Imh0dHA6Ly93d3cudzMub3JnLzIwMDAvc3ZnIiB4bWxuczp4bGluaz0iaHR0cDovL3d3dy53My5vcmcvMTk5OS94bGluayI+CiAgICA8IS0tIEdlbmVyYXRvcjogU2tldGNoIDUzICg3MjUyMCkgLSBodHRwczovL3NrZXRjaGFwcC5jb20gLS0+CiAgICA8dGl0bGU+SUJNIENsb3VkIEJsYWNrPC90aXRsZT4KICAgIDxkZXNjPkNyZWF0ZWQgd2l0aCBTa2V0Y2guPC9kZXNjPgogICAgPGcgaWQ9IlBhZ2UtMSIgc3Ryb2tlPSJub25lIiBzdHJva2Utd2lkdGg9IjEiIGZpbGw9Im5vbmUiIGZpbGwtcnVsZT0iZXZlbm9kZCI+CiAgICAgICAgPGcgaWQ9IklCTS1DbG91ZC1CbGFjayIgdHJhbnNmb3JtPSJ0cmFuc2xhdGUoMC43ODQ3MjIsIDAuNTAwMTI1KSIgZmlsbD0iIzAwMDAwMCI+CiAgICAgICAgICAgIDxwYXRoIGQ9Ik0yNy4xMDIxLDI3LjAxMDYgQzI1Ljg3MDEsMjcuODc5NiAyNC4zNjExLDI4LjI2NzYgMjIuODUzMSwyOC4yNjc2IEw3LjAwNDEsMjguMjY3NiBDNC4xMTIxLDI4LjI3NDYgMS43NjIxLDI1LjkzNDYgMS43NTUxLDIzLjA0MjYgQzEuNzQ5MSwyMC40MTA2IDMuNjk3MSwxOC4xODM2IDYuMzA1MSwxNy44Mzg2IEM2LjQxMTEsMTkuMTYxNiA2Ljc4NzEsMjAuNDQ5NiA3LjQwOTEsMjEuNjIxNiBDNy41OTUxLDIxLjk5MTYgOC4wNDYxLDIyLjE0MDYgOC40MTYxLDIxLjk1NDYgQzguNzg2MSwyMS43Njc2IDguOTM1MSwyMS4zMTc2IDguNzQ4MSwyMC45NDc2IEw4LjczMDEsMjAuOTEyNiBDNy4xMzIxLDE3LjkzNTYgNy40MjkxLDE0LjIxNzYgOS42NzIxLDExLjY4OTYgQzEzLjQ4NjEsNy4zOTI2IDE5Ljc4NzEsOC4wNTI2IDIyLjc1NzEsMTIuMjgxNiBDMjAuMzM0MSwxMi4zNDc2IDE4LjA0NzEsMTMuNDE1NiAxNi40NDExLDE1LjIzMDYgQzE2LjE2MTEsMTUuNTM1NiAxNi4xODExLDE2LjAxMDYgMTYuNDg1MSwxNi4yOTA2IEMxNi43ODkxLDE2LjU3MTYgMTcuMjY0MSwxNi41NTI2IDE3LjU0NTEsMTYuMjQ3NiBMMTcuNTY2MSwxNi4yMjI2IEMxOS41OTUxLDEzLjkyMzYgMjIuODg0MSwxMy4wNTI2IDI1LjcwMzEsMTQuMjYzNiBDMzEuMTY1MSwxNi42MDk2IDMxLjgxMDEsMjMuNjkyNiAyNy4xMDIxLDI3LjAxMDYgTTI0LjU4NTEsMTIuOTE3NiBDMjIuMDU0MSw4LjE3NTYgMTYuMTU5MSw2LjM4MjYgMTEuNDE2MSw4LjkxMzYgQzguNDY1MSwxMC40ODg2IDYuNTI5MSwxMy40Njg2IDYuMjkwMSwxNi44MDY2IEMyLjU4NDEsMTcuMjA0NiAtMC4wOTc5LDIwLjUzMjYgMC4zMDExLDI0LjIzOTYgQzAuNjY5MSwyNy42NjU2IDMuNTU5MSwzMC4yNjM2IDcuMDA0MSwzMC4yNjc2IEwyMy4wMDQxLDMwLjI2NzYgQzI3LjgzNTEsMzAuMjcwNiAzMS43NTMxLDI2LjM1NzYgMzEuNzU2MSwyMS41MjY2IEMzMS43NTkxLDE3LjMwMTYgMjguNzQxMSwxMy42Nzg2IDI0LjU4NTEsMTIuOTE3NiIgaWQ9IkZpbGwtMSI+PC9wYXRoPgogICAgICAgICAgICA8ZyBpZD0iR3JvdXAtNSIgdHJhbnNmb3JtPSJ0cmFuc2xhdGUoMjcuMDAwMDAwLCA4LjI2NzcwMCkiPgogICAgICAgICAgICAgICAgPHBhdGggZD0iTTQuOTAyOCwwLjkxOTcgQzQuNjkzOCwwLjU1NjcgNC4yMjk4LDAuNDMyNyAzLjg2NjgsMC42NDE3IEMzLjg2NjgsMC42NDE3IDMuODY2OCwwLjY0MTcgMy44NjY4LDAuNjQyNyBMMC44NDY4LDIuMzg1NyBDMC40Nzg4LDIuNTg2NyAwLjM0MzgsMy4wNDc3IDAuNTQ0OCwzLjQxNTcgQzAuNzQ1OCwzLjc4MzcgMS4yMDY4LDMuOTE4NyAxLjU3NDgsMy43MTc3IEMxLjU4NDgsMy43MTE3IDEuNTk0OCwzLjcwNTcgMS42MDQ4LDMuNjk5NyBMNC42MjQ4LDEuOTU2NyBDNC45ODc4LDEuNzQ2NyA1LjExMTgsMS4yODI3IDQuOTAyOCwwLjkxOTciIGlkPSJGaWxsLTMiPjwvcGF0aD4KICAgICAgICAgICAgPC9nPgogICAgICAgICAgICA8cGF0aCBkPSJNMjIuNjgxMiw2LjgwMjYgQzIzLjA0MzIsNy4wMTI2IDIzLjUwNzIsNi44ODg2IDIzLjcxNzIsNi41MjU2IEwyMy43MTcyLDYuNTI1NiBMMjUuNDYxMiwzLjUwNTYgQzI1LjY2ODIsMy4xNDA2IDI1LjU0MDIsMi42Nzc2IDI1LjE3NjIsMi40NzA2IEMyNC44MTUyLDIuMjY2NiAyNC4zNTcyLDIuMzg4NiAyNC4xNDcyLDIuNzQ2NiBMMjIuNDAzMiw1Ljc2NjYgQzIyLjE5NDIsNi4xMjk2IDIyLjMxODIsNi41OTM2IDIyLjY4MTIsNi44MDI2IiBpZD0iRmlsbC02Ij48L3BhdGg+CiAgICAgICAgICAgIDxwYXRoIGQ9Ik0xNi4wMDQ0LDUuMDE0MSBDMTYuNDIzNCw1LjAxNDEgMTYuNzYzNCw0LjY3NDEgMTcuMzM1NCw0LjI1NTEgTDE3LjMzNTQsMC43NjcxIEMxNi43Njg0LDAuMzQ4MSAxNi40MzI0LDAuMDA1MSAxNi4wMTM0LDAuMDAwMSBDMTUuNTk0NCwtMC4wMDQ5IDE1LjI1MTQsMC4zMzExIDE1LjMzNTQsMC43NTAxIEwxNS4zMzU0LDAuNzY3MSBMMTUuMzM1NCw0LjI1NTEgQzE1LjI0NjQsNC42NzQxIDE1LjU4NTQsNS4wMTQxIDE2LjAwNDQsNS4wMTQxIiBpZD0iRmlsbC04Ij48L3BhdGg+CiAgICAgICAgICAgIDxwYXRoIGQ9Ik04LjI5Miw2LjUyNDggQzguNTA0LDYuODg1OCA4Ljk2OSw3LjAwNjggOS4zMzEsNi43OTQ4IEM5LjY4OCw2LjU4NDggOS44MTEsNi4xMjY4IDkuNjA2LDUuNzY1OCBMNy44NjIsMi43NDU4IEM3LjY1NSwyLjM4MTggNy4xOTIsMi4yNTM4IDYuODI4LDIuNDYwOCBDNi40NjMsMi42Njc4IDYuMzM1LDMuMTMwOCA2LjU0MiwzLjQ5NDggQzYuNTQ0LDMuNDk4OCA2LjU0NiwzLjUwMTggNi41NDgsMy41MDQ4IEw4LjI5Miw2LjUyNDggWiIgaWQ9IkZpbGwtMTAiPjwvcGF0aD4KICAgICAgICAgICAgPGcgaWQ9Ikdyb3VwLTE0IiB0cmFuc2Zvcm09InRyYW5zbGF0ZSgwLjAwMDAwMCwgOC4yNjc3MDApIj4KICAgICAgICAgICAgICAgIDxwYXRoIGQ9Ik00LjE2MzEsMi4zODYgTDEuMTQzMSwwLjY0MiBDMC43ODIxLDAuNDMgMC4zMTcxLDAuNTUxIDAuMTA0MSwwLjkxMiBDLTAuMTA3OSwxLjI3MyAwLjAxMzEsMS43MzkgMC4zNzQxLDEuOTUgQzAuMzc4MSwxLjk1MiAwLjM4MTEsMS45NTQgMC4zODQxLDEuOTU2IEwzLjQwNTEsMy43IEMzLjc2NjEsMy45MTIgNC4yMzExLDMuNzkxIDQuNDQzMSwzLjQzIEM0LjY1NTEsMy4wNjkgNC41MzUxLDIuNjA0IDQuMTczMSwyLjM5MiBDNC4xNzAxLDIuMzkgNC4xNjYxLDIuMzg4IDQuMTYzMSwyLjM4NiBaIiBpZD0iRmlsbC0xMiI+PC9wYXRoPgogICAgICAgICAgICA8L2c+CiAgICAgICAgPC9nPgogICAgPC9nPgo8L3N2Zz4=;" parent="FNMUlUJ3g3bvDXa8bkuB-1" vertex="1">
          <mxGeometry x="20" y="7" width="21" height="19.73" as="geometry" />
        </mxCell>
        <mxCell id="FNMUlUJ3g3bvDXa8bkuB-20" value="" style="rounded=0;whiteSpace=wrap;html=1;fontFamily=IBM Plex Sans;fontSource=fonts%2FIBMPlexSans-Regular.woff;fontSize=14;spacingBottom=-28;spacingTop=0;labelPosition=-100;verticalLabelPosition=top;align=center;verticalAlign=bottom;spacingLeft=9;spacing=0;expand=0;recursiveResize=0;spacingRight=0;container=1;collapsible=0;strokeColor=#1192E8;fillColor=none;" parent="FNMUlUJ3g3bvDXa8bkuB-1" vertex="1">
          <mxGeometry x="20.5" y="41" width="159" height="150" as="geometry">
            <mxRectangle width="670" as="alternateBounds" />
          </mxGeometry>
        </mxCell>
        <mxCell id="FNMUlUJ3g3bvDXa8bkuB-21" value="" style="rounded=0;whiteSpace=wrap;html=1;strokeColor=none;fillColor=#1192E8;" parent="FNMUlUJ3g3bvDXa8bkuB-20" vertex="1">
          <mxGeometry width="7" height="37" as="geometry" />
        </mxCell>
        <mxCell id="FNMUlUJ3g3bvDXa8bkuB-22" value="IBM VPC" style="text;html=1;strokeColor=none;fillColor=none;align=left;verticalAlign=middle;whiteSpace=wrap;rounded=0;fontFamily=IBM Plex Sans;fontSource=fonts%2FIBMPlexSans-Regular.woff;fontSize=14;" parent="FNMUlUJ3g3bvDXa8bkuB-20" vertex="1">
          <mxGeometry x="51" y="8" width="163" height="20" as="geometry" />
        </mxCell>
        <mxCell id="FNMUlUJ3g3bvDXa8bkuB-23" value="" style="shape=image;aspect=fixed;image=data:image/svg+xml,PD94bWwgdmVyc2lvbj0iMS4wIiBlbmNvZGluZz0iVVRGLTgiPz4KPHN2ZyB3aWR0aD0iMjlweCIgaGVpZ2h0PSIyOHB4IiB2aWV3Qm94PSIwIDAgMjkgMjgiIHZlcnNpb249IjEuMSIgeG1sbnM9Imh0dHA6Ly93d3cudzMub3JnLzIwMDAvc3ZnIiB4bWxuczp4bGluaz0iaHR0cDovL3d3dy53My5vcmcvMTk5OS94bGluayI+CiAgICA8IS0tIEdlbmVyYXRvcjogU2tldGNoIDUzICg3MjUyMCkgLSBodHRwczovL3NrZXRjaGFwcC5jb20gLS0+CiAgICA8dGl0bGU+SUJNIFZQQyBCbGFjazwvdGl0bGU+CiAgICA8ZGVzYz5DcmVhdGVkIHdpdGggU2tldGNoLjwvZGVzYz4KICAgIDxnIGlkPSJQYWdlLTEiIHN0cm9rZT0ibm9uZSIgc3Ryb2tlLXdpZHRoPSIxIiBmaWxsPSJub25lIiBmaWxsLXJ1bGU9ImV2ZW5vZGQiPgogICAgICAgIDxnIGlkPSJJQk0tVlBDLUJsYWNrIiB0cmFuc2Zvcm09InRyYW5zbGF0ZSgwLjc1MDAwMCwgLTEuMDAwMDAwKSIgZmlsbD0iIzAwMDAwMCI+CiAgICAgICAgICAgIDxwYXRoIGQ9Ik0wLjAwMDksMS4wMDAyIEwwLjAwMDksOS4wMDAyIEw2LjU4NjksOS4wMDAyIEwyMC4wMDA5LDIyLjQxNDIgTDIwLjAwMDksMjkuMDAwMiBMMjguMDAwOSwyOS4wMDAyIEwyOC4wMDA5LDIxLjAwMDIgTDIxLjQxNTksMjEuMDAwMiBMOC4wMDA5LDcuNTg1MiBMOC4wMDA5LDEuMDAwMiBMMC4wMDA5LDEuMDAwMiBaIE0yLjAwMDksNy4wMDAyIEw2LjAwMDksNy4wMDAyIEw2LjAwMDksMy4wMDAyIEwyLjAwMDksMy4wMDAyIEwyLjAwMDksNy4wMDAyIFogTTIyLjAwMDksMjcuMDAxMiBMMjYuMDAxOSwyNy4wMDEyIEwyNi4wMDE5LDIzLjAwMDIgTDIyLjAwMDksMjMuMDAwMiBMMjIuMDAwOSwyNy4wMDEyIFoiIGlkPSJGaWxsLTEiPjwvcGF0aD4KICAgICAgICAgICAgPGcgaWQ9Ikdyb3VwLTgiIHRyYW5zZm9ybT0idHJhbnNsYXRlKDAuMDAwMDAwLCAwLjAwMTkwMCkiPgogICAgICAgICAgICAgICAgPGcgaWQ9Ikdyb3VwLTQiIHRyYW5zZm9ybT0idHJhbnNsYXRlKDExLjAwMDAwMCwgMC4wMDAwMDApIj4KICAgICAgICAgICAgICAgICAgICA8cGF0aCBkPSJNMTIuNjQ2Nyw2LjgxNzkgQzExLjU0MjcsNi44MTc5IDEwLjY0NjcsNS45MjI5IDEwLjY0NjcsNC44MTc5IEMxMC42NDY3LDMuNzEzOSAxMS41NDI3LDIuODE3OSAxMi42NDY3LDIuODE3OSBDMTMuNzUwNywyLjgxNzkgMTQuNjQ2NywzLjcxMzkgMTQuNjQ2Nyw0LjgxNzkgQzE0LjY0NTcsNS45MjE5IDEzLjc1MDcsNi44MTY5IDEyLjY0NjcsNi44MTc5IE0xNi43MzM3LDMuNTE4OSBDMTYuMzU2NywyLjQ5ODkgMTUuNTMxNywxLjY2NzkgMTQuNTE1NywxLjI4MDkgQzEyLjEyNzcsMC4zNzA5IDkuNzE3NywxLjc1NTkgOS4xNDI3LDMuOTk3OSBMMC4wMDA3LDMuOTk3OSBMMC4wMDA3LDUuOTk3OSBMOS4xNDI3LDUuOTk3OSBDOS41MDc3LDcuMzk3OSAxMC42MDE3LDguNDkwOSAxMi4wMDA3LDguODU1OSBMMTIuMDAwNywxNy45OTc5IEwxNC4wMDA3LDE3Ljk5NzkgTDE0LjAwMDcsOC44NTU5IEMxNi4yMjk3LDguMjgxOSAxNy42MTE3LDUuODk2OSAxNi43MzM3LDMuNTE4OSIgaWQ9IkZpbGwtMiI+PC9wYXRoPgogICAgICAgICAgICAgICAgPC9nPgogICAgICAgICAgICAgICAgPGcgaWQ9Ikdyb3VwLTciIHRyYW5zZm9ybT0idHJhbnNsYXRlKDAuMDAwMDAwLCAxMS4wMDAwMDApIj4KICAgICAgICAgICAgICAgICAgICA8cGF0aCBkPSJNMy42NDY3LDE1LjgxNzkgQzIuNTQyNywxNS44MTc5IDEuNjQ2NywxNC45MjI5IDEuNjQ2NywxMy44MTc5IEMxLjY0NjcsMTIuNzEzOSAyLjU0MjcsMTEuODE3OSAzLjY0NjcsMTEuODE3OSBDNC43NTA3LDExLjgxNzkgNS42NDY3LDEyLjcxMzkgNS42NDY3LDEzLjgxNzkgQzUuNjQ1NywxNC45MjE5IDQuNzUwNywxNS44MTY5IDMuNjQ2NywxNS44MTc5IEwzLjY0NjcsMTUuODE3OSBaIE0xNy4wMDA3LDEyLjk5NzkgTDcuODU4NywxMi45OTc5IEM3LjQ5MzcsMTEuNTk3OSA2LjQwMDcsMTAuNTA0OSA1LjAwMDcsMTAuMTM5OSBMNS4wMDA3LDAuOTk3OSBMMy4wMDA3LDAuOTk3OSBMMy4wMDA3LDEwLjEzOTkgQzAuNDg3NywxMC43ODQ5IC0wLjg1MTMsMTMuNjgzOSAwLjU5NDcsMTYuMTE5OSBDMS4xNTA3LDE3LjA1NTkgMi4xMTE3LDE3LjcyODkgMy4xODI3LDE3LjkyNjkgQzUuNDAyNywxOC4zMzc5IDcuMzUzNywxNi45Njk5IDcuODU4NywxNC45OTc5IEwxNy4wMDA3LDE0Ljk5NzkgTDE3LjAwMDcsMTIuOTk3OSBaIiBpZD0iRmlsbC01Ij48L3BhdGg+CiAgICAgICAgICAgICAgICA8L2c+CiAgICAgICAgICAgIDwvZz4KICAgICAgICA8L2c+CiAgICA8L2c+Cjwvc3ZnPg==;" parent="FNMUlUJ3g3bvDXa8bkuB-20" vertex="1">
          <mxGeometry x="20" y="6.849999999999909" width="20" height="19.31" as="geometry" />
        </mxCell>
        <mxCell id="JUNawT56HppjqtOFG5Hy-2" value="&lt;font color=&quot;#f0f0f0&quot;&gt;VPN Connection&lt;/font&gt;" style="image;aspect=fixed;perimeter=ellipsePerimeter;html=1;align=center;shadow=0;dashed=0;fontColor=#4277BB;labelBackgroundColor=default;fontSize=12;spacingTop=3;image=img/lib/ibm/vpc/VPNConnection.svg;" vertex="1" parent="FNMUlUJ3g3bvDXa8bkuB-20">
          <mxGeometry x="65.5" y="55" width="45" height="45" as="geometry" />
        </mxCell>
        <mxCell id="FNMUlUJ3g3bvDXa8bkuB-29" value="ObjectÂ &#xa;Storage" style="shape=image;aspect=fixed;image=data:image/svg+xml,PHN2ZyBpZD0iTGF5ZXJfMSIgZGF0YS1uYW1lPSJMYXllciAxIiB4bWxucz0iaHR0cDovL3d3dy53My5vcmcvMjAwMC9zdmciIHZpZXdCb3g9IjAgMCA0OSA0OSI+PGRlZnM+PHN0eWxlPi5jbHMtMXtmaWxsOiMwZjYyZmU7fS5jbHMtMntmaWxsOiNmZmY7fS5jbHMtM3tmaWxsOm5vbmU7fTwvc3R5bGU+PC9kZWZzPjxyZWN0IGNsYXNzPSJjbHMtMSIgeD0iMC41IiB5PSIwLjUiIHdpZHRoPSI0OCIgaGVpZ2h0PSI0OCIgcng9IjgiLz48cGF0aCBjbGFzcz0iY2xzLTIiIGQ9Ik0zMiwyN0gzMC43NXYxLjI1SDMyVjMySDE3VjI4LjI1aDYuMjVWMjdIMTdhMS4yNSwxLjI1LDAsMCwwLTEuMjUsMS4yNVYzMkExLjI1LDEuMjUsMCwwLDAsMTcsMzMuMjVIMzJBMS4yNSwxLjI1LDAsMCwwLDMzLjI1LDMyVjI4LjI1QTEuMjUsMS4yNSwwLDAsMCwzMiwyN1oiLz48Y2lyY2xlIGNsYXNzPSJjbHMtMiIgY3g9IjE4Ljg4IiBjeT0iMzAuMTMiIHI9IjAuNjMiLz48cmVjdCBjbGFzcz0iY2xzLTMiIHg9IjE0LjUiIHk9IjE0LjUiIHdpZHRoPSIyMCIgaGVpZ2h0PSIyMCIvPjxwYXRoIGNsYXNzPSJjbHMtMiIgZD0iTTI3LjYyLDIzLjI1YTEuODgsMS44OCwwLDAsMC0xLjI3LjUxbC0yLjUtMS41YTIuMywyLjMsMCwwLDAsMC0uMjYsMi4zLDIuMywwLDAsMCwwLS4yNmwyLjUtMS41YTEuODcsMS44NywwLDEsMC0uNi0xLjM2LDEuMDcsMS4wNywwLDAsMCwwLC4yNWwtMi41MSwxLjVBMS44NiwxLjg2LDAsMCwwLDIyLDIwLjEyYTEuODgsMS44OCwwLDAsMCwwLDMuNzYsMS44NiwxLjg2LDAsMCwwLDEuMjctLjUxbDIuNTEsMS41YTEuMDcsMS4wNywwLDAsMCwwLC4yNSwxLjg4LDEuODgsMCwxLDAsMS44Ny0xLjg3Wm0wLTVhLjYzLjYzLDAsMSwxLS42Mi42M0EuNjMuNjMsMCwwLDEsMjcuNjIsMTguMjVaTTIyLDIyLjYyYS42Mi42MiwwLDEsMSwuNjItLjYyQS42Mi42MiwwLDAsMSwyMiwyMi42MlptNS42MiwzLjEzYS42My42MywwLDEsMSwuNjMtLjYzQS42My42MywwLDAsMSwyNy42MiwyNS43NVoiLz48L3N2Zz4=;fontFamily=IBM Plex Sans;fontSource=fonts%2FIBMPlexSans-Regular.woff;fontSize=14;labelPosition=center;verticalLabelPosition=top;align=center;verticalAlign=bottom;spacingTop=-7;" parent="FNMUlUJ3g3bvDXa8bkuB-1" vertex="1">
          <mxGeometry x="254" y="95" width="48" height="48" as="geometry" />
        </mxCell>
        <mxCell id="JUNawT56HppjqtOFG5Hy-1" value="(Provisioning)" style="edgeStyle=orthogonalEdgeStyle;rounded=0;orthogonalLoop=1;jettySize=auto;html=1;exitX=0.5;exitY=0;exitDx=0;exitDy=0;entryX=0.5;entryY=1;entryDx=0;entryDy=0;fillColor=#e51400;strokeColor=#FF0000;dashed=1;" edge="1" parent="FNMUlUJ3g3bvDXa8bkuB-1" source="FNMUlUJ3g3bvDXa8bkuB-10" target="FNMUlUJ3g3bvDXa8bkuB-29">
          <mxGeometry relative="1" as="geometry" />
        </mxCell>
        <mxCell id="fDStptwrIceDRDBqFbec-2" style="edgeStyle=orthogonalEdgeStyle;rounded=0;orthogonalLoop=1;jettySize=auto;html=1;exitX=0.5;exitY=1;exitDx=0;exitDy=0;entryX=0.174;entryY=-0.007;entryDx=0;entryDy=0;entryPerimeter=0;" edge="1" parent="FNMUlUJ3g3bvDXa8bkuB-1" source="JUNawT56HppjqtOFG5Hy-2" target="FNMUlUJ3g3bvDXa8bkuB-3">
          <mxGeometry relative="1" as="geometry" />
        </mxCell>
        <mxCell id="FNMUlUJ3g3bvDXa8bkuB-32" value="" style="rounded=0;whiteSpace=wrap;html=1;fontFamily=IBM Plex Sans;fontSource=fonts%2FIBMPlexSans-Regular.woff;fontSize=14;spacingBottom=-28;spacingTop=0;labelPosition=-100;verticalLabelPosition=top;align=center;verticalAlign=bottom;spacingLeft=9;spacing=0;expand=0;recursiveResize=0;spacingRight=0;container=1;collapsible=0;strokeColor=#878d96;fillColor=none;" parent="1" vertex="1">
          <mxGeometry x="20" y="120" width="240" height="240" as="geometry">
            <mxRectangle width="670" as="alternateBounds" />
          </mxGeometry>
        </mxCell>
        <mxCell id="FNMUlUJ3g3bvDXa8bkuB-33" value="" style="rounded=0;whiteSpace=wrap;html=1;strokeColor=none;fillColor=#878d96;" parent="FNMUlUJ3g3bvDXa8bkuB-32" vertex="1">
          <mxGeometry width="7" height="37" as="geometry" />
        </mxCell>
        <mxCell id="FNMUlUJ3g3bvDXa8bkuB-34" value="Enterprise" style="text;html=1;strokeColor=none;fillColor=none;align=left;verticalAlign=middle;whiteSpace=wrap;rounded=0;fontFamily=IBM Plex Sans;fontSource=fonts%2FIBMPlexSans-Regular.woff;fontSize=14;" parent="FNMUlUJ3g3bvDXa8bkuB-32" vertex="1">
          <mxGeometry x="51" y="8" width="168" height="20" as="geometry" />
        </mxCell>
        <mxCell id="FNMUlUJ3g3bvDXa8bkuB-35" style="edgeStyle=orthogonalEdgeStyle;rounded=0;orthogonalLoop=1;jettySize=auto;html=1;exitX=0;exitY=0.5;exitDx=0;exitDy=0;entryX=1.009;entryY=0.22;entryDx=0;entryDy=0;entryPerimeter=0;fontFamily=IBM Plex Sans;fontSource=fonts%2FIBMPlexSans-Regular.woff;fontSize=14;startArrow=oval;startFill=1;strokeColor=#198038;" parent="FNMUlUJ3g3bvDXa8bkuB-32" edge="1">
          <mxGeometry relative="1" as="geometry" />
        </mxCell>
        <mxCell id="FNMUlUJ3g3bvDXa8bkuB-36" value="" style="shape=image;aspect=fixed;image=data:image/svg+xml,PD94bWwgdmVyc2lvbj0iMS4wIiBlbmNvZGluZz0iVVRGLTgiPz4KPHN2ZyB3aWR0aD0iMzFweCIgaGVpZ2h0PSIyOHB4IiB2aWV3Qm94PSIwIDAgMzEgMjgiIHZlcnNpb249IjEuMSIgeG1sbnM9Imh0dHA6Ly93d3cudzMub3JnLzIwMDAvc3ZnIiB4bWxuczp4bGluaz0iaHR0cDovL3d3dy53My5vcmcvMTk5OS94bGluayI+CiAgICA8IS0tIEdlbmVyYXRvcjogU2tldGNoIDUzICg3MjUyMCkgLSBodHRwczovL3NrZXRjaGFwcC5jb20gLS0+CiAgICA8dGl0bGU+RW50ZXJwcmlzZTwvdGl0bGU+CiAgICA8ZGVzYz5DcmVhdGVkIHdpdGggU2tldGNoLjwvZGVzYz4KICAgIDxkZWZzPgogICAgICAgIDxwb2x5Z29uIGlkPSJwYXRoLTEiIHBvaW50cz0iMCAwLjk5OSAyNS43OTkyIDAuOTk5IDI1Ljc5OTIgMjQgMCAyNCI+PC9wb2x5Z29uPgogICAgICAgIDxwb2x5Z29uIGlkPSJwYXRoLTMiIHBvaW50cz0iMCAyOS4wMDA5IDMwLjAwMSAyOS4wMDA5IDMwLjAwMSAwLjk5OTkgMCAwLjk5OTkiPjwvcG9seWdvbj4KICAgIDwvZGVmcz4KICAgIDxnIGlkPSJQYWdlLTEiIHN0cm9rZT0ibm9uZSIgc3Ryb2tlLXdpZHRoPSIxIiBmaWxsPSJub25lIiBmaWxsLXJ1bGU9ImV2ZW5vZGQiPgogICAgICAgIDxnIGlkPSJFbnRlcnByaXNlIiB0cmFuc2Zvcm09InRyYW5zbGF0ZSgwLjg3NTAwMCwgLTEuMDAwMDAwKSI+CiAgICAgICAgICAgIDxnIGlkPSJHcm91cC0zIiB0cmFuc2Zvcm09InRyYW5zbGF0ZSgwLjAwMDAwMCwgMC4wMDA5MDApIj4KICAgICAgICAgICAgICAgIDxtYXNrIGlkPSJtYXNrLTIiIGZpbGw9IndoaXRlIj4KICAgICAgICAgICAgICAgICAgICA8dXNlIHhsaW5rOmhyZWY9IiNwYXRoLTEiPjwvdXNlPgogICAgICAgICAgICAgICAgPC9tYXNrPgogICAgICAgICAgICAgICAgPGcgaWQ9IkNsaXAtMiI+PC9nPgogICAgICAgICAgICAgICAgPHBhdGggZD0iTTI1Ljc5OTIsOSBDMjQuNjk1MiwzLjU4OSAxOS40MTEyLDAuMDk4IDE0LjAwMDIsMS4yMDMgQzEwLjAyOTIsMi4wMTQgNi45NDEyLDUuMTQzIDYuMTc5Miw5LjEyNCBDMS43MTkyLDkuOTIgLTEuMTA5OCwxNC41MDkgMC40MTcyLDE4Ljk3OCBDMS40NjgyLDIyLjA1IDQuNTA2MiwyNCA3Ljc1MzIsMjQgTDguMDAxMiwyNCBMOC4wMDEyLDIyIEw1LjY5NTIsMjIgQzUuMTUxMiwyMiA0LjYzMDIsMjEuNzcxIDQuMjQ2MiwyMS4zODQgQy0wLjI0MzgsMTYuODczIDIuNjcxMiwxMS4zMjQgNy4xMjQyLDExLjAyMSBMNy45NjAyLDEwLjk2MyBMOC4zMDcyLDcuNzU3IEM4LjM4MzIsNy4wNSA4LjcyNDIsNi4zOTcgOS4yNDQyLDUuOTEzIEMxNS4xNjUyLDAuNDA0IDIyLjMwMzIsMy40MzEgMjMuNzM3Miw5IEwyNS43OTkyLDkgWiIgaWQ9IkZpbGwtMSIgZmlsbD0iIzAwMDAwMCIgbWFzaz0idXJsKCNtYXNrLTIpIj48L3BhdGg+CiAgICAgICAgICAgIDwvZz4KICAgICAgICAgICAgPG1hc2sgaWQ9Im1hc2stNCIgZmlsbD0id2hpdGUiPgogICAgICAgICAgICAgICAgPHVzZSB4bGluazpocmVmPSIjcGF0aC0zIj48L3VzZT4KICAgICAgICAgICAgPC9tYXNrPgogICAgICAgICAgICA8ZyBpZD0iQ2xpcC01Ij48L2c+CiAgICAgICAgICAgIDxwYXRoIGQ9Ik0xOC4wMDEsMjcuMDAwOSBMMjguMDAxLDI3LjAwMDkgTDI4LjAwMSwxMy4wMDA5IEwxOC4wMDEsMTMuMDAwOSBMMTguMDAxLDI3LjAwMDkgWiBNMTIuMDAxLDI3LjAwMDkgTDE2LjAwMSwyNy4wMDA5IEwxNi4wMDEsMTkuMDAwOSBMMTIuMDAxLDE5LjAwMDkgTDEyLjAwMSwyNy4wMDA5IFogTTI4LjAwMSwxMS4wMDA5IEwxOC4wMDEsMTEuMDAwOSBDMTYuODk3LDExLjAwMTkgMTYuMDAyLDExLjg5NjkgMTYuMDAxLDEzLjAwMDkgTDE2LjAwMSwxNy4wMDA5IEwxMi4wMDEsMTcuMDAwOSBDMTAuODk3LDE3LjAwMTkgMTAuMDAyLDE3Ljg5NjkgMTAuMDAxLDE5LjAwMDkgTDEwLjAwMSwyOS4wMDA5IEwzMC4wMDEsMjkuMDAwOSBMMzAuMDAxLDEzLjAwMDkgQzMwLDExLjg5NjkgMjkuMTA1LDExLjAwMTkgMjguMDAxLDExLjAwMDkgTDI4LjAwMSwxMS4wMDA5IFoiIGlkPSJGaWxsLTQiIGZpbGw9IiMwMDAwMDAiIG1hc2s9InVybCgjbWFzay00KSI+PC9wYXRoPgogICAgICAgICAgICA8cG9seWdvbiBpZD0iRmlsbC02IiBmaWxsPSIjMDAwMDAwIiBtYXNrPSJ1cmwoI21hc2stNCkiIHBvaW50cz0iMjAuMDAxIDE5LjAwMDkgMjIuMDAxIDE5LjAwMDkgMjIuMDAxIDE1LjAwMDkgMjAuMDAxIDE1LjAwMDkiPjwvcG9seWdvbj4KICAgICAgICAgICAgPHBvbHlnb24gaWQ9IkZpbGwtNyIgZmlsbD0iIzAwMDAwMCIgbWFzaz0idXJsKCNtYXNrLTQpIiBwb2ludHM9IjI0LjAwMSAxOS4wMDA5IDI2LjAwMSAxOS4wMDA5IDI2LjAwMSAxNS4wMDA5IDI0LjAwMSAxNS4wMDA5Ij48L3BvbHlnb24+CiAgICAgICAgICAgIDxwb2x5Z29uIGlkPSJGaWxsLTgiIGZpbGw9IiMwMDAwMDAiIG1hc2s9InVybCgjbWFzay00KSIgcG9pbnRzPSIyMC4wMDEgMjUuMDAwOSAyMi4wMDEgMjUuMDAwOSAyMi4wMDEgMjEuMDAwOSAyMC4wMDEgMjEuMDAwOSI+PC9wb2x5Z29uPgogICAgICAgICAgICA8cG9seWdvbiBpZD0iRmlsbC05IiBmaWxsPSIjMDAwMDAwIiBtYXNrPSJ1cmwoI21hc2stNCkiIHBvaW50cz0iMjQuMDAxIDI1LjAwMDkgMjYuMDAxIDI1LjAwMDkgMjYuMDAxIDIxLjAwMDkgMjQuMDAxIDIxLjAwMDkiPjwvcG9seWdvbj4KICAgICAgICA8L2c+CiAgICA8L2c+Cjwvc3ZnPg==;" parent="FNMUlUJ3g3bvDXa8bkuB-32" vertex="1">
          <mxGeometry x="20" y="6" width="23" height="20.8" as="geometry" />
        </mxCell>
        <mxCell id="FNMUlUJ3g3bvDXa8bkuB-37" value="Enterprise" style="shape=image;aspect=fixed;image=data:image/svg+xml,PD94bWwgdmVyc2lvbj0iMS4wIiBlbmNvZGluZz0iVVRGLTgiPz4KPHN2ZyB3aWR0aD0iNDlweCIgaGVpZ2h0PSI1MHB4IiB2aWV3Qm94PSIwIDAgNDkgNTAiIHZlcnNpb249IjEuMSIgeG1sbnM9Imh0dHA6Ly93d3cudzMub3JnLzIwMDAvc3ZnIiB4bWxuczp4bGluaz0iaHR0cDovL3d3dy53My5vcmcvMTk5OS94bGluayI+CiAgICA8dGl0bGU+RW50ZXJwcmlzZSB2MiBJY29uPC90aXRsZT4KICAgIDxkZWZzPgogICAgICAgIDxwb2x5Z29uIGlkPSJwYXRoLTEiIHBvaW50cz0iMCAwIDI3LjUzOTMxMjMgMCAyNy41MzkzMTIzIDI3LjUgMCAyNy41Ij48L3BvbHlnb24+CiAgICA8L2RlZnM+CiAgICA8ZyBpZD0iUGFnZS0xIiBzdHJva2U9Im5vbmUiIHN0cm9rZS13aWR0aD0iMSIgZmlsbD0ibm9uZSIgZmlsbC1ydWxlPSJldmVub2RkIj4KICAgICAgICA8ZyBpZD0idjItNDh4NDgiIHRyYW5zZm9ybT0idHJhbnNsYXRlKC0yNDY1LjAwMDAwMCwgLTcyMC4wMDAwMDApIj4KICAgICAgICAgICAgPGcgaWQ9IkVudGVycHJpc2UtdjItSWNvbiIgdHJhbnNmb3JtPSJ0cmFuc2xhdGUoMjQ2NS40OTczMDAsIDcyMS4wMDAwMDApIj4KICAgICAgICAgICAgICAgIDxnIGlkPSJVc2Vycy1NdWx0aXBsaWNpdHkuLXYyLUljb24tQ29weSI+CiAgICAgICAgICAgICAgICAgICAgPHBhdGggZD0iTTAsMjQgQzAsMTAuNzQ1IDEwLjc0NSwwIDI0LDAgQzM3LjI1NSwwIDQ4LDEwLjc0NSA0OCwyNCBDNDgsMzcuMjU1IDM3LjI1NSw0OCAyNCw0OCBDMTAuNzQ1LDQ4IDAsMzcuMjU1IDAsMjQgWiIgaWQ9IkZpbGwtMyIgZmlsbD0iIzAwMDAwMCI+PC9wYXRoPgogICAgICAgICAgICAgICAgICAgIDxwYXRoIGQ9Ik0yNCw0OCBMMjQsNDggQzEwLjc0NSw0OCAwLDM3LjI1NSAwLDI0IEwwLDI0IEMwLDEwLjc0NSAxMC43NDUsMCAyNCwwIEwyNCwwIEMzNy4yNTUsMCA0OCwxMC43NDUgNDgsMjQgTDQ4LDI0IEM0OCwzNy4yNTUgMzcuMjU1LDQ4IDI0LDQ4IFoiIGlkPSJTdHJva2UtNSIgc3Ryb2tlPSIjMDAwMDAwIj48L3BhdGg+CiAgICAgICAgICAgICAgICA8L2c+CiAgICAgICAgICAgICAgICA8ZyBpZD0iR3JvdXAtMTYiIHRyYW5zZm9ybT0idHJhbnNsYXRlKDEwLjIzMDM0NCwgOC4xODYyMjMpIj4KICAgICAgICAgICAgICAgICAgICA8ZyBpZD0iR3JvdXAtMyI+CiAgICAgICAgICAgICAgICAgICAgICAgIDxtYXNrIGlkPSJtYXNrLTIiIGZpbGw9IndoaXRlIj4KICAgICAgICAgICAgICAgICAgICAgICAgICAgIDx1c2UgeGxpbms6aHJlZj0iI3BhdGgtMSI+PC91c2U+CiAgICAgICAgICAgICAgICAgICAgICAgIDwvbWFzaz4KICAgICAgICAgICAgICAgICAgICAgICAgPGcgaWQ9IkNsaXAtMiI+PC9nPgogICAgICAgICAgICAgICAgICAgICAgICA8cGF0aCBkPSJNMTkuNjMxMTcxNywxOC42NjI4NDg2IEMxOS42MzExNzE3LDIwLjU5MTE0NjcgMTkuNjUwNzAyOSwyMi41MTk2NDgzIDE5LjYyMjAxNjUsMjQuNDQ3NTM5NSBDMTkuNjA5ODA5NSwyNS4yNjA3Mjg3IDE5LjkxNjAwMTYsMjUuNjMyNDMxNyAyMC43NTExNjM0LDI1LjYxMjQ5MzYgQzIyLjAwMjE3NjgsMjUuNTgyNzg5OSAyMy4yNTQ4MTc4LDI1LjU4MjE3OTYgMjQuNTA1ODMxMiwyNS42MTI2OTcgQzI1LjM0MDM4MjcsMjUuNjMzMDQyIDI1LjY0MTA4MTYsMjUuMjY0Nzk3NyAyNS42MzY4MDkyLDI0LjQ1MDc5NDcgQzI1LjYxNjA1NzMsMjAuNTk0MTk4NSAyNS42MTI4MDIxLDE2LjczNzYwMjMgMjUuNjM4MjMzNCwxMi44ODEwMDYgQzI1LjY0NDEzMzQsMTEuOTgxNTU0MSAyNS4yNTU5NTEsMTEuNjg4MTc5MyAyNC40MDY1NDc3LDExLjcxNzQ3NjEgQzIzLjIyNDA5NjksMTEuNzU4MzY5NSAyMi4wMzc1NzcxLDExLjc2NTY5MzcgMjAuODU1OTQwMSwxMS43MTYwNTE5IEMxOS45MTc0MjU3LDExLjY3NjU4MjcgMTkuNTk5NjM3LDEyLjA2OTQ0NDQgMTkuNjIwMzg4OSwxMi45Nzk2NzkyIEMxOS42NjMzMTY4LDE0Ljg3MzE4NzQgMTkuNjMzNDA5NywxNi43NjgzMjMyIDE5LjYzMTE3MTcsMTguNjYyODQ4NiBNMTcuNzYzNzA1MiwxMy43MzM4NjggQzE3Ljc2MzcwNTIsMTAuMjA4MDgxMyAxNy43NDMzNjAyLDYuNjgxODg3NzMgMTcuNzc3MzM2MywzLjE1NjMwNDUgQzE3Ljc4NjI4ODEsMi4yNDI0MDc1NyAxNy40NzkwNzg3LDEuODgxODk0MzUgMTYuNTQxMTc0NywxLjg4ODQwNDc1IEMxMi4wOTk4NjM1LDEuOTE4NzE4NzkgNy42NTgzNDg4NSwxLjkyMjc4Nzc4IDMuMjE3MjQxMDksMS44ODcyNTExOCBDMi4yNDIzMDkxOSwxLjg3OTQ1Mjk2IDEuOTExNDk5NjYsMi4yMTY3NzI4OCAxLjkxNTMzMTc4LDMuMTkwNDg0MDggQzEuOTQzNjQ0NzQsMTAuMjQyNDY0NCAxLjk0MDU5Mjk5LDE3LjI5NDQ0NDYgMS45MTYzODI0NSwyNC4zNDY0MjQ5IEMxLjkxMzEyNzI2LDI1LjI1OTEwMTEgMi4yMTgwOTg2NSwyNS42MjI0NjI2IDMuMTUyNzQ3NDcsMjUuNjE2NjMzMiBDNy42MjgwMzQ4MiwyNS41ODgyODMxIDEyLjEwMzMyMjIsMjUuNTkxNTM4MyAxNi41Nzg2MDk1LDI1LjYxNDEyMTIgQzE3LjQ1MDM5MjMsMjUuNjE4NTk3MSAxNy43ODQ2NjA1LDI1LjI5NDUwMTQgMTcuNzc3MzM2MywyNC40MTMzNTk5IEMxNy43NDc4MzYxLDIwLjg1MzgwMDUgMTcuNzY1MTI5MywxNy4yOTM4MzQzIDE3Ljc2MzcwNTIsMTMuNzMzODY4IE0xMy43ODM2MTQ4LDI3LjQ4NTI0OTkgQzkuNjE1MTI5OTQsMjcuNDg1MjQ5OSA1LjQ0NjQ0MTU5LDI3LjQ2NjczNTkgMS4yNzgzNjM1OCwyNy41MDAwMzc5IEMwLjM3NDYzOTE0NywyNy41MDcwMTkgMC4wMDU5ODc5MzcwOSwyNy4yNDM1NTE0IDAuMDA5NDQ2NTg1MzEsMjYuMjg2MTE2MiBDMC4wMzkzNTM3MTk5LDE4LjQ5MTM0MDQgMC4wNzg4MjI5OTk2LDEwLjY5NjE1NzYgMC4wMDAyOTEzNDAwMiwyLjkwMjE5NTU4IEMtMC4wMjA4Njc0NDkxLDAuODA0NjI3MTU4IDEuMTEyMTQ1MDIsLTAuMDE5NzUxODE3OCAyLjg1NDg5NjgyLDAuMDA1NDc1OTY5MjYgQzcuNTMwNzg1NzcsMC4wNzMwMjEzMzQ1IDEyLjIwOTExNjEsMC4wODAzNDU1MzA3IDE2Ljg4NDU5ODIsMC4wMDA1OTMxNzE3NzEgQzE4LjU2NzMzMjIsLTAuMDI4MDkzMjYzNSAxOS43NzYyMzE1LDAuOTg0ODgzNzY1IDE5LjY2ODYwNjUsMi43ODIxNjAxNCBDMTkuNTUxNDE5NCw0Ljc0MDk3NTczIDE5LjY1OTI0NzgsNi43MTIyMDE3NyAxOS42MjA3OTU4LDguNjc3MTIwODYgQzE5LjYwMzcwNiw5LjU1NDYwMDI2IDE5Ljk0OTU3MDgsOS45MDAwNTgxOCAyMC44MjM1OTE2LDkuODc1MDMzODQgQzIyLjI0NTkwOTgsOS44MzM5MzY5NiAyMy42NzAyNjI1LDkuODQwNjUwODEgMjUuMDkzMzk0NSw5Ljg2MjQxOTk1IEMyNi42NTQwNTg3LDkuODg2MDIwMTQgMjcuNDg0OTQ4MSwxMC42ODc4MTYyIDI3LjQ5NDcxMzYsMTIuMjQ0NDExMyBDMjcuNTI0NDE3MywxNi45ODg2NTk0IDI3LjUxMDc4NjIsMjEuNzMzMzE0NCAyNy41MzkzMTIzLDI2LjQ3NzU2MjYgQzI3LjU0NDc2MjMsMjcuNDA1NzAxIDI3LjAyNTU1ODIsMjcuNDk2NjQzMSAyNi4yODkwNjk2LDI3LjQ5MzU5MTMgQzIyLjEyMDc4ODEsMjcuNDc2NTAxNSAxNy45NTIwOTk4LDI3LjQ4NTQ1MzMgMTMuNzgzNjE0OCwyNy40ODUyNDk5IiBpZD0iRmlsbC0xIiBmaWxsPSIjRkZGRkZGIiBtYXNrPSJ1cmwoI21hc2stMikiPjwvcGF0aD4KICAgICAgICAgICAgICAgICAgICA8L2c+CiAgICAgICAgICAgICAgICAgICAgPHBhdGggZD0iTTcuODUyMDczODQsNy44MDMyODMyMSBDNy44NTE0NjM0OSw4LjE3NTE4OTYyIDcuODUwMDM5MzQsOC41NDY4OTI1OCA3Ljg1MTg3MDM5LDguOTE4Nzk4OTkgQzcuODU0OTIyMTQsOS41NjkwMjQ4NSA3LjQ5MDk1MDI4LDkuODE0MTgxOTggNi44ODU2ODY4NCw5LjgxNDU4OTk5IEM2LjI3Nzc3ODU1LDkuODE1MTk5MjMgNS45MjA1MjA1Myw5LjU2NDk1NTg2IDUuOTIzOTc5MTgsOC45MTU1NDM3OSBDNS45MjcyMzQzOCw4LjIzOTY4MzI0IDUuOTM5MjM3OTIsNy41NjMyMTIzNCA1LjkyMTEzMDg4LDYuODg3NTU1MjMgQzUuOTAzMDIzODQsNi4yMDc2MjU2OCA2LjIxMTI1MDQzLDUuODkxODcxNDUgNi44OTA3NzMwOSw1Ljg5MjQ4MDkxIEM3LjU3MTUxNjQ0LDUuODkzMDkyMTUgNy44ODYwNDk5Nyw2LjIxMTQ5MTIzIDcuODU0OTIyMTQsNi44OTA4MTA0MyBDNy44NDEwODc1NSw3LjE5NDM1NzY4IDcuODUyNjg0MTksNy40OTkxMjU2MiA3Ljg1MjA3Mzg0LDcuODAzMjgzMjEiIGlkPSJGaWxsLTQiIGZpbGw9IiNGRkZGRkYiPjwvcGF0aD4KICAgICAgICAgICAgICAgICAgICA8cGF0aCBkPSJNMTEuODI4MTU2Miw3Ljg4NjE0ODM2IEMxMS44MjgzNTk2LDcuNTE0MjQxOTUgMTEuODI4NTYzMSw3LjE0MjMzNTU0IDExLjgyODM1OTYsNi43NzA0MjkxMyBDMTEuODI3OTUyNyw2LjExMTQ1NDkyIDEyLjIxMDg0NTQsNS44OTA1MDgzMyAxMi44MDk1OTg1LDUuODkzOTY2OTggQzEzLjQyMTk4MjcsNS44OTc0MjU2MyAxMy43NjQ1OTIzLDYuMTU3MDI3NjkgMTMuNzU2MDQ3NCw2LjgwNTIxOTA2IEMxMy43NDc1MDI1LDcuNDQ3NTEwMzggMTMuNzM0ODg4Niw4LjA5MDYxNTUgMTMuNzU5NzA5NSw4LjczMjA5MzAyIEMxMy43ODY5NzE4LDkuNDM2NjQwMDEgMTMuNTIxMDYyOCw5LjgyMDk1Njg2IDEyLjc3MTU1MzMsOS44MTc3MjIxNyBDMTEuOTk4NDQzNyw5LjgxNDI0MzAxIDExLjc4MzgwNDEsOS4zNzc2Mzk1NCAxMS44MjUxMDQ0LDguNjk3MzAzMDkgQzExLjg0MTU4MzksOC40Mjc5MzU0MyAxMS44Mjc5NTI3LDguMTU2NTMzMjcgMTEuODI4MTU2Miw3Ljg4NjE0ODM2IiBpZD0iRmlsbC02IiBmaWxsPSIjRkZGRkZGIj48L3BhdGg+CiAgICAgICAgICAgICAgICAgICAgPHBhdGggZD0iTTUuOTMxNTA2ODMsMTMuNjk3NTkyOSBDNS45MzE1MDY4MywxMy4zMjU4ODk5IDUuODA3ODA5MjksMTIuODg3MDQ4NSA1Ljk2MzY1MTkxLDEyLjU5OTc3NzMgQzYuMTQ2NTUzMzcsMTIuMjYyNDU3MyA2LjU3MjU3NzQ1LDExLjg1MTY5MiA2Ljg5MjQwMDY4LDExLjg1MjMwMTcgQzcuMjExNDEwMTIsMTEuODUyNzA5MiA3Ljc0MzgzODUsMTIuMjgxNzg1MSA3LjgwNDQ2NjU3LDEyLjU5NTkxMTcgQzcuOTQzMDE1OTQsMTMuMzEzMDcyNiA3Ljg0OTIyNTU0LDE0LjA3NDc4OSA3Ljg1MTY2Njk0LDE0LjgxODM5ODQgQzcuODUzOTA0ODksMTUuNDY5MjM0NiA3LjQ4OTcyOTU4LDE1LjcxMTk1MDQgNi44ODQyNjI2OSwxNS43MTE5NTA0IEM2LjI3NTMzNzE1LDE1LjcxMjE1MzggNS45MTgyODI1OSwxNS40NjI3MjQyIDUuOTIzNzc1NzMsMTQuODEzMTA4NyBDNS45MjcwMzA5MywxNC40NDEyMDIzIDUuOTI0Mzg2MDgsMTQuMDY5NDk5MyA1LjkyNDM4NjA4LDEzLjY5NzU5MjkgQzUuOTI2ODI3NDgsMTMuNjk3NTkyOSA1LjkyOTA2NTQzLDEzLjY5NzU5MjkgNS45MzE1MDY4MywxMy42OTc1OTI5IiBpZD0iRmlsbC04IiBmaWxsPSIjRkZGRkZGIj48L3BhdGg+CiAgICAgICAgICAgICAgICAgICAgPHBhdGggZD0iTTExLjgzMjk3NzksMTMuNjA4MjE3NCBDMTEuODMzMzg0OCwxMy4yNzAyODcxIDExLjcxNDU3MDEsMTIuODYxOTYzMSAxMS44NjI2ODE2LDEyLjYxMTUxNjMgQzEyLjA2MTQ1MjIsMTIuMjc1NDE3MSAxMi40NjQ2ODk5LDExLjg1NTA4OTYgMTIuNzgzNDk1OSwxMS44NTIyMjcxIEMxMy4xMDMxMTU2LDExLjg0OTM5MyAxMy42NDkzNzg2LDEyLjI3NTIxMzYgMTMuNzA0OTIwNCwxMi41ODM2NDM3IEMxMy44NDA0MTgxLDEzLjMzNjYxMTcgMTMuODQwMjE0NiwxNC4xNDY1NDU4IDEzLjcwNjM0NDYsMTQuODk5OTIwNyBDMTMuNjUwNTk5MywxNS4yMTM4NDM5IDEzLjExNzc2NCwxNS42NDg0MTI5IDEyLjc5Nzk0MDgsMTUuNjUxNjg3NSBDMTIuNDc4NzI3OSwxNS42NTQ5MjMzIDEyLjAxNzkxMzksMTUuMjQ3NjE2NiAxMS44NjkzOTU1LDE0LjkxMDA5MzIgQzExLjcwNzI0NTksMTQuNTQyMDUyNCAxMS44MzI1NzEsMTQuMDQ3NjY5MSAxMS44MzI5Nzc5LDEzLjYwODIxNzQiIGlkPSJGaWxsLTEwIiBmaWxsPSIjRkZGRkZGIj48L3BhdGg+CiAgICAgICAgICAgICAgICAgICAgPHBhdGggZD0iTTUuOTMwMTIzMzcsMTkuNTA3ODk4MSBDNS45MzAzMjY4MiwxOS4xNjk3NjQ0IDUuODExMzA4NjMsMTguNzYxNjQzOSA1Ljk1OTQyMDE1LDE4LjUxMDk5MzYgQzYuMTU3OTg3MjUsMTguMTc0NjkwOSA2LjU2MTAyMTQ5LDE3Ljc1NDU2NjkgNi44ODAwMzA5MywxNy43NTE0OTY2IEM3LjIwMDA1NzYyLDE3Ljc0ODI2IDcuNzQ3NTQxMjgsMTguMTczMjY2OCA3LjgwMjg3OTY2LDE4LjQ4MTA4NjUgQzcuOTM4Mzc3MjksMTkuMjM0MjU4IDcuOTM3OTcwMzksMjAuMDQ0MTkyIDcuODA0MTAwMzYsMjAuNzk3OTczOSBDNy43NDgxNTE2MywyMS4xMTE4OTcxIDcuMjE1OTI2NzEsMjEuNTQ3MDc2NCA2Ljg5NjMwNjkyLDIxLjU1MDU1OTYgQzYuNTc2ODkwNTksMjEuNTU0MTk3MiA2LjExNTQ2NjIyLDIxLjE0NzI5NzQgNS45NjY3NDQzNSwyMC44MDk5Nzc0IEM1LjgwNDU5NDc4LDIwLjQ0MjE0IDUuOTI5OTE5OTIsMTkuOTQ3MzQ5OSA1LjkzMDEyMzM3LDE5LjUwNzg5ODEiIGlkPSJGaWxsLTEyIiBmaWxsPSIjRkZGRkZGIj48L3BhdGg+CiAgICAgICAgICAgICAgICAgICAgPHBhdGggZD0iTTExLjgzMjc3NDUsMTkuNTA4MDQwNSBDMTEuODMyOTc3OSwxOS4xNzAxMTAyIDExLjcxNDE2MzIsMTguNzYxOTg5OCAxMS44NjIwNzEzLDE4LjUxMTMzOTUgQzEyLjA2MDQzNDksMTguMTc1MDM2OCAxMi40NjMwNjIzLDE3Ljc1NDcwOTMgMTIuNzgxODY4MywxNy43NTE0MzU1IEMxMy4xMDE2OTE1LDE3Ljc0ODE5ODkgMTMuNjQ5MTc1MiwxOC4xNzI3OTg5IDEzLjcwNDcxNywxOC40ODA2MTg1IEMxMy44NDAyMTQ2LDE5LjIzMzU4NjYgMTMuODQwNDE4MSwyMC4wNDM1MjA2IDEzLjcwNjc1MTUsMjAuNzk3MDk5MSBDMTMuNjUxMDA2MiwyMS4xMTEyMjU3IDEzLjExODk4NDcsMjEuNTQ2ODExOSAxMi43OTkxNjE1LDIxLjU1MDQ5ODYgQzEyLjQ3OTc0NTIsMjEuNTU0MTM2MSAxMi4wMTgzMjA4LDIxLjE0NzIzNjMgMTEuODY5NTk4OSwyMC44MDk5MTY0IEMxMS43MDcyNDU5LDIwLjQ0MjA3OSAxMS44MzI1NzEsMTkuOTQ3NDkyMyAxMS44MzI3NzQ1LDE5LjUwODA0MDUiIGlkPSJGaWxsLTE0IiBmaWxsPSIjRkZGRkZGIj48L3BhdGg+CiAgICAgICAgICAgICAgICA8L2c+CiAgICAgICAgICAgIDwvZz4KICAgICAgICA8L2c+CiAgICA8L2c+Cjwvc3ZnPg==;fontSize=14;fontFamily=IBM Plex Sans;fontSource=fonts%2FIBMPlexSans-Regular.woff;labelPosition=left;verticalLabelPosition=middle;align=right;verticalAlign=middle;spacingBottom=-2;spacingTop=-7;" parent="FNMUlUJ3g3bvDXa8bkuB-32" vertex="1">
          <mxGeometry x="90" y="93" width="49" height="50" as="geometry" />
        </mxCell>
        <mxCell id="FNMUlUJ3g3bvDXa8bkuB-42" value="" style="pointerEvents=1;shadow=0;dashed=0;html=1;strokeColor=none;fillColor=#666666;labelPosition=center;verticalLabelPosition=bottom;verticalAlign=top;align=center;outlineConnect=0;shape=mxgraph.veeam.server;" parent="FNMUlUJ3g3bvDXa8bkuB-32" vertex="1">
          <mxGeometry x="126.4" y="150.00000000000003" width="71.6" height="18.8" as="geometry" />
        </mxCell>
        <mxCell id="FNMUlUJ3g3bvDXa8bkuB-43" value="Aspera Client" style="text;html=1;align=center;verticalAlign=middle;resizable=0;points=[];autosize=1;strokeColor=none;fillColor=none;" parent="FNMUlUJ3g3bvDXa8bkuB-32" vertex="1">
          <mxGeometry x="20.000000000000014" y="144.4" width="100" height="30" as="geometry" />
        </mxCell>
        <mxCell id="fDStptwrIceDRDBqFbec-1" style="edgeStyle=orthogonalEdgeStyle;rounded=0;orthogonalLoop=1;jettySize=auto;html=1;exitX=1;exitY=0.5;exitDx=0;exitDy=0;entryX=0;entryY=0.5;entryDx=0;entryDy=0;" edge="1" parent="1" source="FNMUlUJ3g3bvDXa8bkuB-37" target="JUNawT56HppjqtOFG5Hy-2">
          <mxGeometry relative="1" as="geometry" />
        </mxCell>
      </root>
    </mxGraphModel>
  </diagram>
</mxfile>
